<?xml version="1.0" standalone="no"?>
<svg width="300px" height="240px" viewBox="0 0 400 300" version="1.1" xmlns="http://www.w3.org/2000/svg">

  <path d=" M 220.00 120.00 L 220.00 120.00 L 191.00 191.00 L 120.00 220.00 L 49.00 191.00 L 20.00 120.00 L 49.00 49.00 L 120.00 20.00 L 191.00 49.00 z M 155.00 85.00 L 155.00 85.00 L 120.00 70.00 L 85.00 85.00 L 70.00 120.00 L 85.00 155.00 L 120.00 170.00 L 155.00 155.00 L 170.00 120.00 z M 380.00 120.00 L 380.00 120.00 L 351.00 191.00 L 280.00 220.00 L 209.00 191.00 L 180.00 120.00 L 209.00 49.00 L 280.00 20.00 L 351.00 49.00 z M 315.00 85.00 L 315.00 85.00 L 280.00 70.00 L 245.00 85.00 L 230.00 120.00 L 245.00 155.00 L 280.00 170.00 L 315.00 155.00 L 330.00 120.00 z"
    style="fill:#00009c; fill-opacity:0.09; fill-rule:nonzero; stroke:#b3b3da; stroke-opacity:1.00; stroke-width:0.80;"/>
</svg>
