<?xml version="1.0" standalone="no"?>
<svg width="300px" height="240px" viewBox="0 0 400 300" version="1.1" xmlns="http://www.w3.org/2000/svg">

  <path d=" M 220.00 120.00 L 220.00 120.00 L 191.00 191.00 L 120.00 220.00 L 49.00 191.00 L 20.00 120.00 L 49.00 49.00 L 120.00 20.00 L 191.00 49.00 z M 155.00 85.00 L 155.00 85.00 L 120.00 70.00 L 85.00 85.00 L 70.00 120.00 L 85.00 155.00 L 120.00 170.00 L 155.00 155.00 L 170.00 120.00 z M 380.00 120.00 L 380.00 120.00 L 351.00 191.00 L 280.00 220.00 L 209.00 191.00 L 180.00 120.00 L 209.00 49.00 L 280.00 20.00 L 351.00 49.00 z M 315.00 85.00 L 315.00 85.00 L 280.00 70.00 L 245.00 85.00 L 230.00 120.00 L 245.00 155.00 L 280.00 170.00 L 315.00 155.00 L 330.00 120.00 z"
    style="fill:#00009c; fill-opacity:0.09; fill-rule:nonzero; stroke:#b3b3da; stroke-opacity:1.00; stroke-width:0.80;"/>
  <path d=" M 343.00 56.00 L 343.00 56.00 L 369.00 120.00 L 343.00 183.00 L 280.00 209.00 L 216.00 183.00 L 200.00 142.00 L 183.00 183.00 L 120.00 209.00 L 56.00 183.00 L 30.00 120.00 L 56.00 56.00 L 120.00 30.00 L 183.00 56.00 L 200.00 97.00 L 216.00 56.00 L 280.00 30.00 z M 77.00 77.00 L 77.00 77.00 L 59.00 120.00 L 77.00 163.00 L 120.00 181.00 L 163.00 163.00 L 180.00 120.00 L 189.00 124.00 L 190.00 120.00 L 189.00 116.00 L 180.00 119.00 L 163.00 77.00 L 120.00 59.00 z M 237.00 77.00 L 237.00 77.00 L 219.00 119.00 L 211.00 116.00 L 209.00 120.00 L 211.00 124.00 L 219.00 120.00 L 237.00 163.00 L 280.00 181.00 L 323.00 163.00 L 341.00 120.00 L 323.00 77.00 L 280.00 59.00 z"
    style="fill:#66ff66; fill-opacity:0.27; fill-rule:nonzero; stroke:#003300; stroke-opacity:1.00; stroke-width:1.00;"/>
</svg>
