<?xml version="1.0" standalone="no"?>
<svg width="220px" height="220px" viewBox="10 10 220 220" version="1.1" xmlns="http://www.w3.org/2000/svg">
  <path d=" M 70.25 170.84 L 70.25 170.84 L 64.76 64.65 L 170.84 59.06 L 170.84 176.43 z"
    style="fill:#00009c; fill-opacity:0.09; fill-rule:nonzero; stroke:#b3b3da; stroke-opacity:1.00; stroke-width:0.80;"/>
  <path d=" M 170.84 210.00 L 170.84 210.00 L 36.78 115.00 L 198.81 115.00 M 20.00 165.25 L 20.00 165.25 L 28.13 162.92 L 35.73 160.71 L 42.80 158.49 L 49.56 156.38 L 55.68 154.37 L 61.48 152.37 L 66.76 150.36 L 71.62 148.46 L 80.27 144.87 L 87.45 141.39 L 93.26 138.12 L 97.90 134.85 L 101.38 131.78 L 104.02 128.72 L 105.82 125.77 L 106.87 122.81 L 107.29 119.86 L 107.40 116.90 L 106.66 110.78 L 105.61 104.24 L 105.29 100.86 L 105.39 97.16 L 105.82 93.36 L 106.87 89.25 L 108.56 85.02 L 111.20 80.38 L 114.68 75.52 L 119.22 70.35 L 125.03 64.86 L 132.21 58.95 L 140.76 52.62 L 145.61 49.35 L 150.89 45.97 L 156.59 42.38 L 162.82 38.79 L 169.36 34.99 L 176.43 31.19"
    style="fill:#000000; fill-opacity:0.00; fill-rule:nonzero; stroke:#b3b3da; stroke-opacity:1.00; stroke-width:1.50;"/>
  <path d=" M 81.43 210.00 L 81.43 210.00 L 120.59 148.46 L 20.00 64.65 L 120.59 20.00 L 187.62 142.97 z"
    style="fill:#9c0000; fill-opacity:0.07; fill-rule:nonzero; stroke:#ffa07a; stroke-opacity:0.80; stroke-width:0.80;"/>
  <path d=" M 142.69 60.54 L 142.69 60.54 L 170.83 59.05 L 170.83 112.16 L 187.62 142.97 L 170.83 153.57 L 170.83 176.43 L 137.54 174.58 L 81.44 210.00 L 105.12 172.78 L 70.25 170.84 L 66.77 103.61 L 20.00 64.65 L 120.60 20.00 z"
    style="fill:#66ff66; fill-opacity:0.27; fill-rule:nonzero; stroke:#003300; stroke-opacity:1.00; stroke-width:1.20;"/>
  <path d=" M 170.83 210.00 L 170.83 210.00 L 128.71 180.14 M 20.00 165.24 L 20.00 165.24 L 28.13 162.93 L 35.73 160.71 L 42.80 158.49 L 49.56 156.38 L 55.68 154.37 L 61.49 152.37 L 66.77 150.36 L 69.13 149.43 M 68.51 137.49 L 68.51 137.49 L 36.78 115.00 L 67.36 115.00 M 172.38 115.00 L 172.38 115.00 L 198.81 115.00 M 139.06 53.87 L 139.06 53.87 L 140.75 52.62 L 145.61 49.35 L 150.89 45.97 L 156.58 42.38 L 162.82 38.79 L 169.36 34.99 L 176.43 31.19"
    style="fill:#000000; fill-opacity:0.00; fill-rule:nonzero; stroke:#006600; stroke-opacity:1.00; stroke-width:1.80;"/>
  <g font-family="sans-serif" font-size="14" fill="#000000" fill-opacity="1.00">
    <text x="74" y="224">Union</text>
  </g>

</svg>
