<?xml version="1.0" standalone="no"?>
<svg width="400px" height="400px" viewBox="0 0 400 400" version="1.1" xmlns="http://www.w3.org/2000/svg">
  <path d=" M 93.47 285.41 L 93.47 285.41 L 93.47 248.67 L 75.10 248.67 L 75.10 230.31 L 130.20 230.31 L 130.20 248.67 L 111.84 248.67 L 111.84 285.41 z M 264.29 327.65 L 264.29 327.65 L 264.29 290.92 L 245.92 290.92 L 245.92 272.55 L 301.02 272.55 L 301.02 290.92 L 282.65 290.92 L 282.65 327.65 z M 251.43 51.22 L 251.43 51.22 L 251.43 32.86 L 269.80 32.86 L 269.80 51.22 L 288.16 51.22 L 288.16 69.59 L 269.80 69.59 L 269.80 87.96 L 251.43 87.96 L 251.43 69.59 L 233.06 69.59 L 233.06 51.22 z M 247.76 60.41 L 247.76 60.41 L 247.76 42.04 L 266.12 42.04 L 266.12 60.41 L 284.49 60.41 L 284.49 78.78 L 266.12 78.78 L 266.12 97.14 L 247.76 97.14 L 247.76 78.78 L 229.39 78.78 L 229.39 60.41 z M 128.37 155.00 L 128.37 155.00 L 128.37 118.27 L 110.00 118.27 L 110.00 99.90 L 165.10 99.90 L 165.10 118.27 L 146.73 118.27 L 146.73 155.00 z M 208.27 221.12 L 208.27 221.12 L 208.27 184.39 L 189.90 184.39 L 189.90 166.02 L 245.00 166.02 L 245.00 184.39 L 226.63 184.39 L 226.63 221.12 z M 268.88 111.84 L 268.88 111.84 L 268.88 75.10 L 250.51 75.10 L 250.51 56.73 L 305.61 56.73 L 305.61 75.10 L 287.24 75.10 L 287.24 111.84 z M 315.71 251.43 L 315.71 251.43 L 370.82 251.43 L 370.82 269.80 L 334.08 269.80 L 334.08 288.16 L 370.82 288.16 L 370.82 306.53 L 315.71 306.53 z M 202.76 48.47 L 202.76 48.47 L 202.76 30.10 L 221.12 30.10 L 221.12 48.47 L 239.49 48.47 L 239.49 66.84 L 221.12 66.84 L 221.12 85.20 L 202.76 85.20 L 202.76 66.84 L 184.39 66.84 L 184.39 48.47 z M 333.16 123.78 L 333.16 123.78 L 333.16 105.41 L 351.53 105.41 L 351.53 123.78 L 369.90 123.78 L 369.90 142.14 L 351.53 142.14 L 351.53 160.51 L 333.16 160.51 L 333.16 142.14 L 314.80 142.14 L 314.80 123.78 z M 299.18 260.61 L 299.18 260.61 L 354.29 260.61 L 354.29 278.98 L 317.55 278.98 L 317.55 297.35 L 354.29 297.35 L 354.29 315.71 L 299.18 315.71 z M 195.41 90.71 L 195.41 90.71 L 195.41 53.98 L 177.04 53.98 L 177.04 35.61 L 232.14 35.61 L 232.14 53.98 L 213.78 53.98 L 213.78 90.71 z M 185.31 249.59 L 185.31 249.59 L 185.31 231.22 L 203.67 231.22 L 203.67 249.59 L 222.04 249.59 L 222.04 267.96 L 203.67 267.96 L 203.67 286.33 L 185.31 286.33 L 185.31 267.96 L 166.94 267.96 L 166.94 249.59 z M 140.31 42.04 L 140.31 42.04 L 140.31 23.67 L 158.67 23.67 L 158.67 42.04 L 177.04 42.04 L 177.04 60.41 L 158.67 60.41 L 158.67 78.78 L 140.31 78.78 L 140.31 60.41 L 121.94 60.41 L 121.94 42.04 z M 143.98 230.31 L 143.98 230.31 L 143.98 193.57 L 125.61 193.57 L 125.61 175.20 L 180.71 175.20 L 180.71 193.57 L 162.35 193.57 L 162.35 230.31 z M 170.61 265.20 L 170.61 265.20 L 170.61 228.47 L 152.24 228.47 L 152.24 210.10 L 207.35 210.10 L 207.35 228.47 L 188.98 228.47 L 188.98 265.20 z M 49.39 73.27 L 49.39 73.27 L 104.49 73.27 L 104.49 91.63 L 67.76 91.63 L 67.76 110.00 L 104.49 110.00 L 104.49 128.37 L 49.39 128.37 z M 58.57 225.71 L 58.57 225.71 L 113.67 225.71 L 113.67 244.08 L 76.94 244.08 L 76.94 262.45 L 113.67 262.45 L 113.67 280.82 L 58.57 280.82 z M 340.51 259.69 L 340.51 259.69 L 340.51 222.96 L 322.14 222.96 L 322.14 204.59 L 377.24 204.59 L 377.24 222.96 L 358.88 222.96 L 358.88 259.69 z M 174.29 237.65 L 174.29 237.65 L 229.39 237.65 L 229.39 256.02 L 192.65 256.02 L 192.65 274.39 L 229.39 274.39 L 229.39 292.76 L 174.29 292.76 z M 166.02 183.47 L 166.02 183.47 L 166.02 165.10 L 184.39 165.10 L 184.39 183.47 L 202.76 183.47 L 202.76 201.84 L 184.39 201.84 L 184.39 220.20 L 166.02 220.20 L 166.02 201.84 L 147.65 201.84 L 147.65 183.47 z M 29.18 208.27 L 29.18 208.27 L 84.29 208.27 L 84.29 226.63 L 47.55 226.63 L 47.55 245.00 L 84.29 245.00 L 84.29 263.37 L 29.18 263.37 z M 159.59 83.37 L 159.59 83.37 L 214.69 83.37 L 214.69 101.73 L 177.96 101.73 L 177.96 120.10 L 214.69 120.10 L 214.69 138.47 L 159.59 138.47 z M 235.82 159.59 L 235.82 159.59 L 235.82 141.22 L 254.18 141.22 L 254.18 159.59 L 272.55 159.59 L 272.55 177.96 L 254.18 177.96 L 254.18 196.33 L 235.82 196.33 L 235.82 177.96 L 217.45 177.96 L 217.45 159.59 z M 70.51 144.90 L 70.51 144.90 L 70.51 126.53 L 88.88 126.53 L 88.88 144.90 L 107.24 144.90 L 107.24 163.27 L 88.88 163.27 L 88.88 181.63 L 70.51 181.63 L 70.51 163.27 L 52.14 163.27 L 52.14 144.90 z M 120.10 307.45 L 120.10 307.45 L 175.20 307.45 L 175.20 325.82 L 138.47 325.82 L 138.47 344.18 L 175.20 344.18 L 175.20 362.55 L 120.10 362.55 z M 197.24 257.86 L 197.24 257.86 L 197.24 221.12 L 178.88 221.12 L 178.88 202.76 L 233.98 202.76 L 233.98 221.12 L 215.61 221.12 L 215.61 257.86 z M 260.61 303.78 L 260.61 303.78 L 260.61 267.04 L 242.24 267.04 L 242.24 248.67 L 297.35 248.67 L 297.35 267.04 L 278.98 267.04 L 278.98 303.78 z M 271.63 282.65 L 271.63 282.65 L 271.63 245.92 L 253.27 245.92 L 253.27 227.55 L 308.37 227.55 L 308.37 245.92 L 290.00 245.92 L 290.00 282.65 z M 329.49 287.24 L 329.49 287.24 L 329.49 250.51 L 311.12 250.51 L 311.12 232.14 L 366.22 232.14 L 366.22 250.51 L 347.86 250.51 L 347.86 287.24 z M 182.55 220.20 L 182.55 220.20 L 182.55 183.47 L 164.18 183.47 L 164.18 165.10 L 219.29 165.10 L 219.29 183.47 L 200.92 183.47 L 200.92 220.20 z M 294.59 110.92 L 294.59 110.92 L 349.69 110.92 L 349.69 129.29 L 312.96 129.29 L 312.96 147.65 L 349.69 147.65 L 349.69 166.02 L 294.59 166.02 z M 80.61 310.20 L 80.61 310.20 L 80.61 291.84 L 98.98 291.84 L 98.98 310.20 L 117.35 310.20 L 117.35 328.57 L 98.98 328.57 L 98.98 346.94 L 80.61 346.94 L 80.61 328.57 L 62.24 328.57 L 62.24 310.20 z M 211.02 326.73 L 211.02 326.73 L 211.02 308.37 L 229.39 308.37 L 229.39 326.73 L 247.76 326.73 L 247.76 345.10 L 229.39 345.10 L 229.39 363.47 L 211.02 363.47 L 211.02 345.10 L 192.65 345.10 L 192.65 326.73 z M 337.76 183.47 L 337.76 183.47 L 337.76 165.10 L 356.12 165.10 L 356.12 183.47 L 374.49 183.47 L 374.49 201.84 L 356.12 201.84 L 356.12 220.20 L 337.76 220.20 L 337.76 201.84 L 319.39 201.84 L 319.39 183.47 z M 147.65 139.39 L 147.65 139.39 L 202.76 139.39 L 202.76 157.76 L 166.02 157.76 L 166.02 176.12 L 202.76 176.12 L 202.76 194.49 L 147.65 194.49 z M 21.84 38.37 L 21.84 38.37 L 76.94 38.37 L 76.94 56.73 L 40.20 56.73 L 40.20 75.10 L 76.94 75.10 L 76.94 93.47 L 21.84 93.47 z M 256.02 314.80 L 256.02 314.80 L 256.02 278.06 L 237.65 278.06 L 237.65 259.69 L 292.76 259.69 L 292.76 278.06 L 274.39 278.06 L 274.39 314.80 z M 48.47 92.55 L 48.47 92.55 L 48.47 74.18 L 66.84 74.18 L 66.84 92.55 L 85.20 92.55 L 85.20 110.92 L 66.84 110.92 L 66.84 129.29 L 48.47 129.29 L 48.47 110.92 L 30.10 110.92 L 30.10 92.55 z M 91.63 189.90 L 91.63 189.90 L 91.63 171.53 L 110.00 171.53 L 110.00 189.90 L 128.37 189.90 L 128.37 208.27 L 110.00 208.27 L 110.00 226.63 L 91.63 226.63 L 91.63 208.27 L 73.27 208.27 L 73.27 189.90 z M 131.12 269.80 L 131.12 269.80 L 131.12 233.06 L 112.76 233.06 L 112.76 214.69 L 167.86 214.69 L 167.86 233.06 L 149.49 233.06 L 149.49 269.80 z M 264.29 127.45 L 264.29 127.45 L 264.29 90.71 L 245.92 90.71 L 245.92 72.35 L 301.02 72.35 L 301.02 90.71 L 282.65 90.71 L 282.65 127.45 z M 94.39 29.18 L 94.39 29.18 L 149.49 29.18 L 149.49 47.55 L 112.76 47.55 L 112.76 65.92 L 149.49 65.92 L 149.49 84.29 L 94.39 84.29 z M 261.53 105.41 L 261.53 105.41 L 316.63 105.41 L 316.63 123.78 L 279.90 123.78 L 279.90 142.14 L 316.63 142.14 L 316.63 160.51 L 261.53 160.51 z M 61.33 249.59 L 61.33 249.59 L 61.33 212.86 L 42.96 212.86 L 42.96 194.49 L 98.06 194.49 L 98.06 212.86 L 79.69 212.86 L 79.69 249.59 z M 20.92 20.00 L 20.92 20.00 L 76.02 20.00 L 76.02 38.37 L 39.29 38.37 L 39.29 56.73 L 76.02 56.73 L 76.02 75.10 L 20.92 75.10 z M 280.82 165.10 L 280.82 165.10 L 335.92 165.10 L 335.92 183.47 L 299.18 183.47 L 299.18 201.84 L 335.92 201.84 L 335.92 220.20 L 280.82 220.20 z M 142.14 221.12 L 142.14 221.12 L 142.14 202.76 L 160.51 202.76 L 160.51 221.12 L 178.88 221.12 L 178.88 239.49 L 160.51 239.49 L 160.51 257.86 L 142.14 257.86 L 142.14 239.49 L 123.78 239.49 L 123.78 221.12 z M 69.59 150.41 L 69.59 150.41 L 124.69 150.41 L 124.69 168.78 L 87.96 168.78 L 87.96 187.14 L 124.69 187.14 L 124.69 205.51 L 69.59 205.51 z M 245.00 96.22 L 245.00 96.22 L 245.00 59.49 L 226.63 59.49 L 226.63 41.12 L 281.73 41.12 L 281.73 59.49 L 263.37 59.49 L 263.37 96.22 z M 121.02 191.73 L 121.02 191.73 L 121.02 155.00 L 102.65 155.00 L 102.65 136.63 L 157.76 136.63 L 157.76 155.00 L 139.39 155.00 L 139.39 191.73 z M 245.92 287.24 L 245.92 287.24 L 245.92 268.88 L 264.29 268.88 L 264.29 287.24 L 282.65 287.24 L 282.65 305.61 L 264.29 305.61 L 264.29 323.98 L 245.92 323.98 L 245.92 305.61 L 227.55 305.61 L 227.55 287.24 z M 129.29 313.88 L 129.29 313.88 L 184.39 313.88 L 184.39 332.24 L 147.65 332.24 L 147.65 350.61 L 184.39 350.61 L 184.39 368.98 L 129.29 368.98 z M 307.45 121.94 L 307.45 121.94 L 307.45 85.20 L 289.08 85.20 L 289.08 66.84 L 344.18 66.84 L 344.18 85.20 L 325.82 85.20 L 325.82 121.94 z M 315.71 118.27 L 315.71 118.27 L 315.71 99.90 L 334.08 99.90 L 334.08 118.27 L 352.45 118.27 L 352.45 136.63 L 334.08 136.63 L 334.08 155.00 L 315.71 155.00 L 315.71 136.63 L 297.35 136.63 L 297.35 118.27 z M 172.45 318.47 L 172.45 318.47 L 227.55 318.47 L 227.55 336.84 L 190.82 336.84 L 190.82 355.20 L 227.55 355.20 L 227.55 373.57 L 172.45 373.57 z M 20.00 203.67 L 20.00 203.67 L 75.10 203.67 L 75.10 222.04 L 38.37 222.04 L 38.37 240.41 L 75.10 240.41 L 75.10 258.78 L 20.00 258.78 z M 80.61 166.02 L 80.61 166.02 L 80.61 147.65 L 98.98 147.65 L 98.98 166.02 L 117.35 166.02 L 117.35 184.39 L 98.98 184.39 L 98.98 202.76 L 80.61 202.76 L 80.61 184.39 L 62.24 184.39 L 62.24 166.02 z M 206.43 324.90 L 206.43 324.90 L 206.43 306.53 L 224.80 306.53 L 224.80 324.90 L 243.16 324.90 L 243.16 343.27 L 224.80 343.27 L 224.80 361.63 L 206.43 361.63 L 206.43 343.27 L 188.06 343.27 L 188.06 324.90 z M 257.86 300.10 L 257.86 300.10 L 257.86 263.37 L 239.49 263.37 L 239.49 245.00 L 294.59 245.00 L 294.59 263.37 L 276.22 263.37 L 276.22 300.10 z M 222.96 132.96 L 222.96 132.96 L 222.96 96.22 L 204.59 96.22 L 204.59 77.86 L 259.69 77.86 L 259.69 96.22 L 241.33 96.22 L 241.33 132.96 z M 200.00 175.20 L 200.00 175.20 L 255.10 175.20 L 255.10 193.57 L 218.37 193.57 L 218.37 211.94 L 255.10 211.94 L 255.10 230.31 L 200.00 230.31 z M 184.39 317.55 L 184.39 317.55 L 239.49 317.55 L 239.49 335.92 L 202.76 335.92 L 202.76 354.29 L 239.49 354.29 L 239.49 372.65 L 184.39 372.65 z M 44.80 212.86 L 44.80 212.86 L 44.80 176.12 L 26.43 176.12 L 26.43 157.76 L 81.53 157.76 L 81.53 176.12 L 63.16 176.12 L 63.16 212.86 z M 110.00 118.27 L 110.00 118.27 L 110.00 99.90 L 128.37 99.90 L 128.37 118.27 L 146.73 118.27 L 146.73 136.63 L 128.37 136.63 L 128.37 155.00 L 110.00 155.00 L 110.00 136.63 L 91.63 136.63 L 91.63 118.27 z M 76.94 338.67 L 76.94 338.67 L 76.94 301.94 L 58.57 301.94 L 58.57 283.57 L 113.67 283.57 L 113.67 301.94 L 95.31 301.94 L 95.31 338.67 z M 169.69 143.98 L 169.69 143.98 L 169.69 107.24 L 151.33 107.24 L 151.33 88.88 L 206.43 88.88 L 206.43 107.24 L 188.06 107.24 L 188.06 143.98 z M 68.67 234.90 L 68.67 234.90 L 68.67 216.53 L 87.04 216.53 L 87.04 234.90 L 105.41 234.90 L 105.41 253.27 L 87.04 253.27 L 87.04 271.63 L 68.67 271.63 L 68.67 253.27 L 50.31 253.27 L 50.31 234.90 z M 125.61 369.90 L 125.61 369.90 L 125.61 333.16 L 107.24 333.16 L 107.24 314.80 L 162.35 314.80 L 162.35 333.16 L 143.98 333.16 L 143.98 369.90 z M 251.43 380.00 L 251.43 380.00 L 251.43 343.27 L 233.06 343.27 L 233.06 324.90 L 288.16 324.90 L 288.16 343.27 L 269.80 343.27 L 269.80 380.00 z M 251.43 180.71 L 251.43 180.71 L 251.43 162.35 L 269.80 162.35 L 269.80 180.71 L 288.16 180.71 L 288.16 199.08 L 269.80 199.08 L 269.80 217.45 L 251.43 217.45 L 251.43 199.08 L 233.06 199.08 L 233.06 180.71 z M 99.90 288.16 L 99.90 288.16 L 155.00 288.16 L 155.00 306.53 L 118.27 306.53 L 118.27 324.90 L 155.00 324.90 L 155.00 343.27 L 99.90 343.27 z M 146.73 219.29 L 146.73 219.29 L 146.73 200.92 L 165.10 200.92 L 165.10 219.29 L 183.47 219.29 L 183.47 237.65 L 165.10 237.65 L 165.10 256.02 L 146.73 256.02 L 146.73 237.65 L 128.37 237.65 L 128.37 219.29 z M 281.73 211.02 L 281.73 211.02 L 281.73 192.65 L 300.10 192.65 L 300.10 211.02 L 318.47 211.02 L 318.47 229.39 L 300.10 229.39 L 300.10 247.76 L 281.73 247.76 L 281.73 229.39 L 263.37 229.39 L 263.37 211.02 z M 320.31 113.67 L 320.31 113.67 L 320.31 76.94 L 301.94 76.94 L 301.94 58.57 L 357.04 58.57 L 357.04 76.94 L 338.67 76.94 L 338.67 113.67 z M 126.53 32.86 L 126.53 32.86 L 181.63 32.86 L 181.63 51.22 L 144.90 51.22 L 144.90 69.59 L 181.63 69.59 L 181.63 87.96 L 126.53 87.96 z M 133.88 267.96 L 133.88 267.96 L 133.88 249.59 L 152.24 249.59 L 152.24 267.96 L 170.61 267.96 L 170.61 286.33 L 152.24 286.33 L 152.24 304.69 L 133.88 304.69 L 133.88 286.33 L 115.51 286.33 L 115.51 267.96 z M 149.49 342.35 L 149.49 342.35 L 149.49 305.61 L 131.12 305.61 L 131.12 287.24 L 186.22 287.24 L 186.22 305.61 L 167.86 305.61 L 167.86 342.35 z M 67.76 329.49 L 67.76 329.49 L 67.76 292.76 L 49.39 292.76 L 49.39 274.39 L 104.49 274.39 L 104.49 292.76 L 86.12 292.76 L 86.12 329.49 z M 32.86 245.92 L 32.86 245.92 L 87.96 245.92 L 87.96 264.29 L 51.22 264.29 L 51.22 282.65 L 87.96 282.65 L 87.96 301.02 L 32.86 301.02 z M 142.14 82.45 L 142.14 82.45 L 142.14 45.71 L 123.78 45.71 L 123.78 27.35 L 178.88 27.35 L 178.88 45.71 L 160.51 45.71 L 160.51 82.45 z M 91.63 71.43 L 91.63 71.43 L 91.63 53.06 L 110.00 53.06 L 110.00 71.43 L 128.37 71.43 L 128.37 89.80 L 110.00 89.80 L 110.00 108.16 L 91.63 108.16 L 91.63 89.80 L 73.27 89.80 L 73.27 71.43 z M 71.43 190.82 L 71.43 190.82 L 71.43 154.08 L 53.06 154.08 L 53.06 135.71 L 108.16 135.71 L 108.16 154.08 L 89.80 154.08 L 89.80 190.82 z M 76.94 244.08 L 76.94 244.08 L 76.94 207.35 L 58.57 207.35 L 58.57 188.98 L 113.67 188.98 L 113.67 207.35 L 95.31 207.35 L 95.31 244.08 z M 210.10 342.35 L 210.10 342.35 L 210.10 305.61 L 191.73 305.61 L 191.73 287.24 L 246.84 287.24 L 246.84 305.61 L 228.47 305.61 L 228.47 342.35 z M 157.76 94.39 L 157.76 94.39 L 212.86 94.39 L 212.86 112.76 L 176.12 112.76 L 176.12 131.12 L 212.86 131.12 L 212.86 149.49 L 157.76 149.49 z M 248.67 298.27 L 248.67 298.27 L 248.67 261.53 L 230.31 261.53 L 230.31 243.16 L 285.41 243.16 L 285.41 261.53 L 267.04 261.53 L 267.04 298.27 z M 258.78 123.78 L 258.78 123.78 L 313.88 123.78 L 313.88 142.14 L 277.14 142.14 L 277.14 160.51 L 313.88 160.51 L 313.88 178.88 L 258.78 178.88 z M 332.24 333.16 L 332.24 333.16 L 332.24 296.43 L 313.88 296.43 L 313.88 278.06 L 368.98 278.06 L 368.98 296.43 L 350.61 296.43 L 350.61 333.16 z M 230.31 178.88 L 230.31 178.88 L 230.31 142.14 L 211.94 142.14 L 211.94 123.78 L 267.04 123.78 L 267.04 142.14 L 248.67 142.14 L 248.67 178.88 z M 114.59 252.35 L 114.59 252.35 L 169.69 252.35 L 169.69 270.71 L 132.96 270.71 L 132.96 289.08 L 169.69 289.08 L 169.69 307.45 L 114.59 307.45 z M 274.39 263.37 L 274.39 263.37 L 274.39 226.63 L 256.02 226.63 L 256.02 208.27 L 311.12 208.27 L 311.12 226.63 L 292.76 226.63 L 292.76 263.37 z M 31.94 114.59 L 31.94 114.59 L 87.04 114.59 L 87.04 132.96 L 50.31 132.96 L 50.31 151.33 L 87.04 151.33 L 87.04 169.69 L 31.94 169.69 z M 226.63 69.59 L 226.63 69.59 L 226.63 51.22 L 245.00 51.22 L 245.00 69.59 L 263.37 69.59 L 263.37 87.96 L 245.00 87.96 L 245.00 106.33 L 226.63 106.33 L 226.63 87.96 L 208.27 87.96 L 208.27 69.59 z M 152.24 91.63 L 152.24 91.63 L 207.35 91.63 L 207.35 110.00 L 170.61 110.00 L 170.61 128.37 L 207.35 128.37 L 207.35 146.73 L 152.24 146.73 z M 275.31 211.02 L 275.31 211.02 L 275.31 192.65 L 293.67 192.65 L 293.67 211.02 L 312.04 211.02 L 312.04 229.39 L 293.67 229.39 L 293.67 247.76 L 275.31 247.76 L 275.31 229.39 L 256.94 229.39 L 256.94 211.02 z M 293.67 103.57 L 293.67 103.57 L 293.67 85.20 L 312.04 85.20 L 312.04 103.57 L 330.41 103.57 L 330.41 121.94 L 312.04 121.94 L 312.04 140.31 L 293.67 140.31 L 293.67 121.94 L 275.31 121.94 L 275.31 103.57 z M 304.69 200.92 L 304.69 200.92 L 304.69 182.55 L 323.06 182.55 L 323.06 200.92 L 341.43 200.92 L 341.43 219.29 L 323.06 219.29 L 323.06 237.65 L 304.69 237.65 L 304.69 219.29 L 286.33 219.29 L 286.33 200.92 z M 301.02 202.76 L 301.02 202.76 L 301.02 184.39 L 319.39 184.39 L 319.39 202.76 L 337.76 202.76 L 337.76 221.12 L 319.39 221.12 L 319.39 239.49 L 301.02 239.49 L 301.02 221.12 L 282.65 221.12 L 282.65 202.76 z M 282.65 227.55 L 282.65 227.55 L 282.65 209.18 L 301.02 209.18 L 301.02 227.55 L 319.39 227.55 L 319.39 245.92 L 301.02 245.92 L 301.02 264.29 L 282.65 264.29 L 282.65 245.92 L 264.29 245.92 L 264.29 227.55 z"
    style="fill:#00009c; fill-opacity:0.09; fill-rule:nonzero; stroke:#b3b3da; stroke-opacity:1.00; stroke-width:0.80;"/>
  <path d=" M 76.94 74.18 L 76.94 74.18 L 323.06 74.18 L 323.06 320.31 L 76.94 320.31 z"
    style="fill:#9c0000; fill-opacity:0.07; fill-rule:nonzero; stroke:#ffa07a; stroke-opacity:0.80; stroke-width:0.80;"/>
  <path d=" M 111.84 285.41 L 111.84 285.41 L 93.47 285.41 L 93.47 248.67 L 76.94 248.67 L 76.94 230.31 L 130.20 230.31 L 130.20 248.67 L 111.84 248.67 z M 282.65 320.31 L 282.65 320.31 L 264.29 320.31 L 264.29 290.92 L 245.92 290.92 L 245.92 272.55 L 301.02 272.55 L 301.02 290.92 L 282.65 290.92 z M 251.43 74.18 L 251.43 74.18 L 269.80 74.18 L 269.80 87.96 L 251.43 87.96 z M 229.39 74.18 L 229.39 74.18 L 284.49 74.18 L 284.49 78.78 L 266.12 78.78 L 266.12 97.14 L 247.76 97.14 L 247.76 78.78 L 229.39 78.78 z M 128.37 155.00 L 128.37 155.00 L 128.37 118.27 L 110.00 118.27 L 110.00 99.90 L 165.10 99.90 L 165.10 118.27 L 146.73 118.27 L 146.73 155.00 z M 208.27 221.12 L 208.27 221.12 L 208.27 184.39 L 189.90 184.39 L 189.90 166.02 L 245.00 166.02 L 245.00 184.39 L 226.63 184.39 L 226.63 221.12 z M 287.24 111.84 L 287.24 111.84 L 268.88 111.84 L 268.88 75.10 L 250.51 75.10 L 250.51 74.18 L 305.61 74.18 L 305.61 75.10 L 287.24 75.10 z M 315.71 306.53 L 315.71 306.53 L 315.71 251.43 L 323.06 251.43 L 323.06 306.53 z M 202.76 74.18 L 202.76 74.18 L 221.12 74.18 L 221.12 85.20 L 202.76 85.20 z M 314.80 123.78 L 314.80 123.78 L 323.06 123.78 L 323.06 142.14 L 314.80 142.14 z M 299.18 315.71 L 299.18 315.71 L 299.18 260.61 L 323.06 260.61 L 323.06 278.98 L 317.55 278.98 L 317.55 297.35 L 323.06 297.35 L 323.06 315.71 z M 213.78 90.71 L 213.78 90.71 L 195.41 90.71 L 195.41 74.18 L 213.78 74.18 z M 185.31 249.59 L 185.31 249.59 L 185.31 231.22 L 203.67 231.22 L 203.67 249.59 L 222.04 249.59 L 222.04 267.96 L 203.67 267.96 L 203.67 286.33 L 185.31 286.33 L 185.31 267.96 L 166.94 267.96 L 166.94 249.59 z M 140.31 74.18 L 140.31 74.18 L 158.67 74.18 L 158.67 78.78 L 140.31 78.78 z M 143.98 230.31 L 143.98 230.31 L 143.98 193.57 L 125.61 193.57 L 125.61 175.20 L 180.71 175.20 L 180.71 193.57 L 162.35 193.57 L 162.35 230.31 z M 170.61 265.20 L 170.61 265.20 L 170.61 228.47 L 152.24 228.47 L 152.24 210.10 L 207.35 210.10 L 207.35 228.47 L 188.98 228.47 L 188.98 265.20 z M 76.94 74.18 L 76.94 74.18 L 104.49 74.18 L 104.49 91.63 L 76.94 91.63 z M 76.94 110.00 L 76.94 110.00 L 104.49 110.00 L 104.49 128.37 L 76.94 128.37 z M 76.94 225.71 L 76.94 225.71 L 113.67 225.71 L 113.67 244.08 L 76.94 244.08 z M 76.94 262.45 L 76.94 262.45 L 113.67 262.45 L 113.67 280.82 L 76.94 280.82 z M 323.06 204.59 L 323.06 204.59 L 323.06 222.96 L 322.14 222.96 L 322.14 204.59 z M 174.29 237.65 L 174.29 237.65 L 229.39 237.65 L 229.39 256.02 L 192.65 256.02 L 192.65 274.39 L 229.39 274.39 L 229.39 292.76 L 174.29 292.76 z M 166.02 183.47 L 166.02 183.47 L 166.02 165.10 L 184.39 165.10 L 184.39 183.47 L 202.76 183.47 L 202.76 201.84 L 184.39 201.84 L 184.39 220.20 L 166.02 220.20 L 166.02 201.84 L 147.65 201.84 L 147.65 183.47 z M 76.94 208.27 L 76.94 208.27 L 84.29 208.27 L 84.29 226.63 L 76.94 226.63 z M 76.94 245.00 L 76.94 245.00 L 84.29 245.00 L 84.29 263.37 L 76.94 263.37 z M 159.59 83.37 L 159.59 83.37 L 214.69 83.37 L 214.69 101.73 L 177.96 101.73 L 177.96 120.10 L 214.69 120.10 L 214.69 138.47 L 159.59 138.47 z M 235.82 159.59 L 235.82 159.59 L 235.82 141.22 L 254.18 141.22 L 254.18 159.59 L 272.55 159.59 L 272.55 177.96 L 254.18 177.96 L 254.18 196.33 L 235.82 196.33 L 235.82 177.96 L 217.45 177.96 L 217.45 159.59 z M 76.94 181.63 L 76.94 181.63 L 76.94 126.53 L 88.88 126.53 L 88.88 144.90 L 107.24 144.90 L 107.24 163.27 L 88.88 163.27 L 88.88 181.63 z M 175.20 320.31 L 175.20 320.31 L 120.10 320.31 L 120.10 307.45 L 175.20 307.45 z M 197.24 257.86 L 197.24 257.86 L 197.24 221.12 L 178.88 221.12 L 178.88 202.76 L 233.98 202.76 L 233.98 221.12 L 215.61 221.12 L 215.61 257.86 z M 260.61 303.78 L 260.61 303.78 L 260.61 267.04 L 242.24 267.04 L 242.24 248.67 L 297.35 248.67 L 297.35 267.04 L 278.98 267.04 L 278.98 303.78 z M 271.63 282.65 L 271.63 282.65 L 271.63 245.92 L 253.27 245.92 L 253.27 227.55 L 308.37 227.55 L 308.37 245.92 L 290.00 245.92 L 290.00 282.65 z M 323.06 232.14 L 323.06 232.14 L 323.06 250.51 L 311.12 250.51 L 311.12 232.14 z M 182.55 220.20 L 182.55 220.20 L 182.55 183.47 L 164.18 183.47 L 164.18 165.10 L 219.29 165.10 L 219.29 183.47 L 200.92 183.47 L 200.92 220.20 z M 294.59 166.02 L 294.59 166.02 L 294.59 110.92 L 323.06 110.92 L 323.06 129.29 L 312.96 129.29 L 312.96 147.65 L 323.06 147.65 L 323.06 166.02 z M 76.94 320.31 L 76.94 320.31 L 76.94 310.20 L 80.61 310.20 L 80.61 291.84 L 98.98 291.84 L 98.98 310.20 L 117.35 310.20 L 117.35 320.31 z M 229.39 320.31 L 229.39 320.31 L 211.02 320.31 L 211.02 308.37 L 229.39 308.37 z M 319.39 183.47 L 319.39 183.47 L 323.06 183.47 L 323.06 201.84 L 319.39 201.84 z M 147.65 139.39 L 147.65 139.39 L 202.76 139.39 L 202.76 157.76 L 166.02 157.76 L 166.02 176.12 L 202.76 176.12 L 202.76 194.49 L 147.65 194.49 z M 256.02 314.80 L 256.02 314.80 L 256.02 278.06 L 237.65 278.06 L 237.65 259.69 L 292.76 259.69 L 292.76 278.06 L 274.39 278.06 L 274.39 314.80 z M 76.94 110.92 L 76.94 110.92 L 76.94 92.55 L 85.20 92.55 L 85.20 110.92 z M 76.94 208.27 L 76.94 208.27 L 76.94 189.90 L 91.63 189.90 L 91.63 171.53 L 110.00 171.53 L 110.00 189.90 L 128.37 189.90 L 128.37 208.27 L 110.00 208.27 L 110.00 226.63 L 91.63 226.63 L 91.63 208.27 z M 131.12 269.80 L 131.12 269.80 L 131.12 233.06 L 112.76 233.06 L 112.76 214.69 L 167.86 214.69 L 167.86 233.06 L 149.49 233.06 L 149.49 269.80 z M 282.65 127.45 L 282.65 127.45 L 264.29 127.45 L 264.29 90.71 L 245.92 90.71 L 245.92 74.18 L 301.02 74.18 L 301.02 90.71 L 282.65 90.71 z M 94.39 84.29 L 94.39 84.29 L 94.39 74.18 L 149.49 74.18 L 149.49 84.29 z M 261.53 105.41 L 261.53 105.41 L 316.63 105.41 L 316.63 123.78 L 279.90 123.78 L 279.90 142.14 L 316.63 142.14 L 316.63 160.51 L 261.53 160.51 z M 79.69 249.59 L 79.69 249.59 L 76.94 249.59 L 76.94 194.49 L 98.06 194.49 L 98.06 212.86 L 79.69 212.86 z M 280.82 220.20 L 280.82 220.20 L 280.82 165.10 L 323.06 165.10 L 323.06 183.47 L 299.18 183.47 L 299.18 201.84 L 323.06 201.84 L 323.06 220.20 z M 142.14 221.12 L 142.14 221.12 L 142.14 202.76 L 160.51 202.76 L 160.51 221.12 L 178.88 221.12 L 178.88 239.49 L 160.51 239.49 L 160.51 257.86 L 142.14 257.86 L 142.14 239.49 L 123.78 239.49 L 123.78 221.12 z M 76.94 205.51 L 76.94 205.51 L 76.94 150.41 L 124.69 150.41 L 124.69 168.78 L 87.96 168.78 L 87.96 187.14 L 124.69 187.14 L 124.69 205.51 z M 263.37 96.22 L 263.37 96.22 L 245.00 96.22 L 245.00 74.18 L 263.37 74.18 z M 121.02 191.73 L 121.02 191.73 L 121.02 155.00 L 102.65 155.00 L 102.65 136.63 L 157.76 136.63 L 157.76 155.00 L 139.39 155.00 L 139.39 191.73 z M 227.55 287.24 L 227.55 287.24 L 245.92 287.24 L 245.92 268.88 L 264.29 268.88 L 264.29 287.24 L 282.65 287.24 L 282.65 305.61 L 264.29 305.61 L 264.29 320.31 L 245.92 320.31 L 245.92 305.61 L 227.55 305.61 z M 184.39 320.31 L 184.39 320.31 L 129.29 320.31 L 129.29 313.88 L 184.39 313.88 z M 323.06 74.18 L 323.06 74.18 L 323.06 121.94 L 307.45 121.94 L 307.45 85.20 L 289.08 85.20 L 289.08 74.18 z M 297.35 118.27 L 297.35 118.27 L 315.71 118.27 L 315.71 99.90 L 323.06 99.90 L 323.06 155.00 L 315.71 155.00 L 315.71 136.63 L 297.35 136.63 z M 227.55 320.31 L 227.55 320.31 L 172.45 320.31 L 172.45 318.47 L 227.55 318.47 z M 76.94 184.39 L 76.94 184.39 L 76.94 166.02 L 80.61 166.02 L 80.61 147.65 L 98.98 147.65 L 98.98 166.02 L 117.35 166.02 L 117.35 184.39 L 98.98 184.39 L 98.98 202.76 L 80.61 202.76 L 80.61 184.39 z M 224.80 320.31 L 224.80 320.31 L 206.43 320.31 L 206.43 306.53 L 224.80 306.53 z M 257.86 300.10 L 257.86 300.10 L 257.86 263.37 L 239.49 263.37 L 239.49 245.00 L 294.59 245.00 L 294.59 263.37 L 276.22 263.37 L 276.22 300.10 z M 222.96 132.96 L 222.96 132.96 L 222.96 96.22 L 204.59 96.22 L 204.59 77.86 L 259.69 77.86 L 259.69 96.22 L 241.33 96.22 L 241.33 132.96 z M 200.00 175.20 L 200.00 175.20 L 255.10 175.20 L 255.10 193.57 L 218.37 193.57 L 218.37 211.94 L 255.10 211.94 L 255.10 230.31 L 200.00 230.31 z M 239.49 320.31 L 239.49 320.31 L 184.39 320.31 L 184.39 317.55 L 239.49 317.55 z M 76.94 176.12 L 76.94 176.12 L 76.94 157.76 L 81.53 157.76 L 81.53 176.12 z M 110.00 118.27 L 110.00 118.27 L 110.00 99.90 L 128.37 99.90 L 128.37 118.27 L 146.73 118.27 L 146.73 136.63 L 128.37 136.63 L 128.37 155.00 L 110.00 155.00 L 110.00 136.63 L 91.63 136.63 L 91.63 118.27 z M 95.31 320.31 L 95.31 320.31 L 76.94 320.31 L 76.94 283.57 L 113.67 283.57 L 113.67 301.94 L 95.31 301.94 z M 169.69 143.98 L 169.69 143.98 L 169.69 107.24 L 151.33 107.24 L 151.33 88.88 L 206.43 88.88 L 206.43 107.24 L 188.06 107.24 L 188.06 143.98 z M 76.94 271.63 L 76.94 271.63 L 76.94 216.53 L 87.04 216.53 L 87.04 234.90 L 105.41 234.90 L 105.41 253.27 L 87.04 253.27 L 87.04 271.63 z M 162.35 320.31 L 162.35 320.31 L 107.24 320.31 L 107.24 314.80 L 162.35 314.80 z M 251.43 180.71 L 251.43 180.71 L 251.43 162.35 L 269.80 162.35 L 269.80 180.71 L 288.16 180.71 L 288.16 199.08 L 269.80 199.08 L 269.80 217.45 L 251.43 217.45 L 251.43 199.08 L 233.06 199.08 L 233.06 180.71 z M 118.27 320.31 L 118.27 320.31 L 99.90 320.31 L 99.90 288.16 L 155.00 288.16 L 155.00 306.53 L 118.27 306.53 z M 146.73 219.29 L 146.73 219.29 L 146.73 200.92 L 165.10 200.92 L 165.10 219.29 L 183.47 219.29 L 183.47 237.65 L 165.10 237.65 L 165.10 256.02 L 146.73 256.02 L 146.73 237.65 L 128.37 237.65 L 128.37 219.29 z M 281.73 211.02 L 281.73 211.02 L 281.73 192.65 L 300.10 192.65 L 300.10 211.02 L 318.47 211.02 L 318.47 229.39 L 300.10 229.39 L 300.10 247.76 L 281.73 247.76 L 281.73 229.39 L 263.37 229.39 L 263.37 211.02 z M 323.06 74.18 L 323.06 74.18 L 323.06 113.67 L 320.31 113.67 L 320.31 76.94 L 301.94 76.94 L 301.94 74.18 z M 126.53 87.96 L 126.53 87.96 L 126.53 74.18 L 181.63 74.18 L 181.63 87.96 z M 133.88 267.96 L 133.88 267.96 L 133.88 249.59 L 152.24 249.59 L 152.24 267.96 L 170.61 267.96 L 170.61 286.33 L 152.24 286.33 L 152.24 304.69 L 133.88 304.69 L 133.88 286.33 L 115.51 286.33 L 115.51 267.96 z M 167.86 320.31 L 167.86 320.31 L 149.49 320.31 L 149.49 305.61 L 131.12 305.61 L 131.12 287.24 L 186.22 287.24 L 186.22 305.61 L 167.86 305.61 z M 76.94 320.31 L 76.94 320.31 L 76.94 274.39 L 104.49 274.39 L 104.49 292.76 L 86.12 292.76 L 86.12 320.31 z M 76.94 245.92 L 76.94 245.92 L 87.96 245.92 L 87.96 264.29 L 76.94 264.29 z M 76.94 282.65 L 76.94 282.65 L 87.96 282.65 L 87.96 301.02 L 76.94 301.02 z M 160.51 82.45 L 160.51 82.45 L 142.14 82.45 L 142.14 74.18 L 160.51 74.18 z M 76.94 74.18 L 76.94 74.18 L 128.37 74.18 L 128.37 89.80 L 110.00 89.80 L 110.00 108.16 L 91.63 108.16 L 91.63 89.80 L 76.94 89.80 z M 89.80 190.82 L 89.80 190.82 L 76.94 190.82 L 76.94 135.71 L 108.16 135.71 L 108.16 154.08 L 89.80 154.08 z M 95.31 244.08 L 95.31 244.08 L 76.94 244.08 L 76.94 188.98 L 113.67 188.98 L 113.67 207.35 L 95.31 207.35 z M 228.47 320.31 L 228.47 320.31 L 210.10 320.31 L 210.10 305.61 L 191.73 305.61 L 191.73 287.24 L 246.84 287.24 L 246.84 305.61 L 228.47 305.61 z M 157.76 94.39 L 157.76 94.39 L 212.86 94.39 L 212.86 112.76 L 176.12 112.76 L 176.12 131.12 L 212.86 131.12 L 212.86 149.49 L 157.76 149.49 z M 248.67 298.27 L 248.67 298.27 L 248.67 261.53 L 230.31 261.53 L 230.31 243.16 L 285.41 243.16 L 285.41 261.53 L 267.04 261.53 L 267.04 298.27 z M 258.78 123.78 L 258.78 123.78 L 313.88 123.78 L 313.88 142.14 L 277.14 142.14 L 277.14 160.51 L 313.88 160.51 L 313.88 178.88 L 258.78 178.88 z M 323.06 278.06 L 323.06 278.06 L 323.06 296.43 L 313.88 296.43 L 313.88 278.06 z M 230.31 178.88 L 230.31 178.88 L 230.31 142.14 L 211.94 142.14 L 211.94 123.78 L 267.04 123.78 L 267.04 142.14 L 248.67 142.14 L 248.67 178.88 z M 114.59 252.35 L 114.59 252.35 L 169.69 252.35 L 169.69 270.71 L 132.96 270.71 L 132.96 289.08 L 169.69 289.08 L 169.69 307.45 L 114.59 307.45 z M 274.39 263.37 L 274.39 263.37 L 274.39 226.63 L 256.02 226.63 L 256.02 208.27 L 311.12 208.27 L 311.12 226.63 L 292.76 226.63 L 292.76 263.37 z M 76.94 114.59 L 76.94 114.59 L 87.04 114.59 L 87.04 132.96 L 76.94 132.96 z M 76.94 151.33 L 76.94 151.33 L 87.04 151.33 L 87.04 169.69 L 76.94 169.69 z M 208.27 74.18 L 208.27 74.18 L 263.37 74.18 L 263.37 87.96 L 245.00 87.96 L 245.00 106.33 L 226.63 106.33 L 226.63 87.96 L 208.27 87.96 z M 152.24 91.63 L 152.24 91.63 L 207.35 91.63 L 207.35 110.00 L 170.61 110.00 L 170.61 128.37 L 207.35 128.37 L 207.35 146.73 L 152.24 146.73 z M 275.31 211.02 L 275.31 211.02 L 275.31 192.65 L 293.67 192.65 L 293.67 211.02 L 312.04 211.02 L 312.04 229.39 L 293.67 229.39 L 293.67 247.76 L 275.31 247.76 L 275.31 229.39 L 256.94 229.39 L 256.94 211.02 z M 275.31 103.57 L 275.31 103.57 L 293.67 103.57 L 293.67 85.20 L 312.04 85.20 L 312.04 103.57 L 323.06 103.57 L 323.06 121.94 L 312.04 121.94 L 312.04 140.31 L 293.67 140.31 L 293.67 121.94 L 275.31 121.94 z M 286.33 200.92 L 286.33 200.92 L 304.69 200.92 L 304.69 182.55 L 323.06 182.55 L 323.06 237.65 L 304.69 237.65 L 304.69 219.29 L 286.33 219.29 z M 282.65 202.76 L 282.65 202.76 L 301.02 202.76 L 301.02 184.39 L 319.39 184.39 L 319.39 202.76 L 323.06 202.76 L 323.06 221.12 L 319.39 221.12 L 319.39 239.49 L 301.02 239.49 L 301.02 221.12 L 282.65 221.12 z M 282.65 227.55 L 282.65 227.55 L 282.65 209.18 L 301.02 209.18 L 301.02 227.55 L 319.39 227.55 L 319.39 245.92 L 301.02 245.92 L 301.02 264.29 L 282.65 264.29 L 282.65 245.92 L 264.29 245.92 L 264.29 227.55 z"
    style="fill:#66ff66; fill-opacity:0.27; fill-rule:nonzero; stroke:#003300; stroke-opacity:1.00; stroke-width:1.00;"/>
</svg>
