solid antenna:patch
  facet normal -0.000000e+00 -0.000000e+00 -1.000000e+00
    outer loop
      vertex 5.872210e+01 1.709781e+02 0.000000e+00
      vertex 1.811119e+02 1.709781e+02 0.000000e+00
      vertex 1.811119e+02 6.885581e+01 0.000000e+00
    endloop
  endfacet
  facet normal -0.000000e+00 -0.000000e+00 -1.000000e+00
    outer loop
      vertex 5.872210e+01 1.709781e+02 0.000000e+00
      vertex 1.811119e+02 6.885581e+01 0.000000e+00
      vertex 5.872210e+01 6.885581e+01 0.000000e+00
    endloop
  endfacet
  facet normal 0.000000e+00 0.000000e+00 1.000000e+00
    outer loop
      vertex 1.811119e+02 6.885581e+01 2.997925e-01
      vertex 1.811119e+02 1.709781e+02 2.997925e-01
      vertex 5.872210e+01 1.709781e+02 2.997925e-01
    endloop
  endfacet
  facet normal 0.000000e+00 0.000000e+00 1.000000e+00
    outer loop
      vertex 1.811119e+02 6.885581e+01 2.997925e-01
      vertex 5.872210e+01 1.709781e+02 2.997925e-01
      vertex 5.872210e+01 6.885581e+01 2.997925e-01
    endloop
  endfacet
  facet normal 0.000000e+00 1.000000e+00 -0.000000e+00
    outer loop
      vertex 5.872210e+01 1.709781e+02 2.997925e-01
      vertex 1.811119e+02 1.709781e+02 2.997925e-01
      vertex 1.811119e+02 1.709781e+02 0.000000e+00
    endloop
  endfacet
  facet normal 0.000000e+00 1.000000e+00 -0.000000e+00
    outer loop
      vertex 5.872210e+01 1.709781e+02 2.997925e-01
      vertex 1.811119e+02 1.709781e+02 0.000000e+00
      vertex 5.872210e+01 1.709781e+02 0.000000e+00
    endloop
  endfacet
  facet normal -1.000000e+00 0.000000e+00 0.000000e+00
    outer loop
      vertex 5.872210e+01 6.885581e+01 2.997925e-01
      vertex 5.872210e+01 1.709781e+02 2.997925e-01
      vertex 5.872210e+01 1.709781e+02 0.000000e+00
    endloop
  endfacet
  facet normal -1.000000e+00 0.000000e+00 0.000000e+00
    outer loop
      vertex 5.872210e+01 6.885581e+01 2.997925e-01
      vertex 5.872210e+01 1.709781e+02 0.000000e+00
      vertex 5.872210e+01 6.885581e+01 0.000000e+00
    endloop
  endfacet
  facet normal 0.000000e+00 -1.000000e+00 0.000000e+00
    outer loop
      vertex 1.811119e+02 6.885581e+01 2.997925e-01
      vertex 5.872210e+01 6.885581e+01 2.997925e-01
      vertex 5.872210e+01 6.885581e+01 0.000000e+00
    endloop
  endfacet
  facet normal 0.000000e+00 -1.000000e+00 0.000000e+00
    outer loop
      vertex 1.811119e+02 6.885581e+01 2.997925e-01
      vertex 5.872210e+01 6.885581e+01 0.000000e+00
      vertex 1.811119e+02 6.885581e+01 0.000000e+00
    endloop
  endfacet
  facet normal 1.000000e+00 0.000000e+00 0.000000e+00
    outer loop
      vertex 1.811119e+02 1.709781e+02 2.997925e-01
      vertex 1.811119e+02 6.885581e+01 2.997925e-01
      vertex 1.811119e+02 6.885581e+01 0.000000e+00
    endloop
  endfacet
  facet normal 1.000000e+00 0.000000e+00 0.000000e+00
    outer loop
      vertex 1.811119e+02 1.709781e+02 2.997925e-01
      vertex 1.811119e+02 6.885581e+01 0.000000e+00
      vertex 1.811119e+02 1.709781e+02 0.000000e+00
    endloop
  endfacet
endsolid antenna:patch
solid antenna:feed
  facet normal -0.000000e+00 -0.000000e+00 -1.000000e+00
    outer loop
      vertex 4.102633e-01 -5.232895e+01 0.000000e+00
      vertex 0.000000e+00 -5.288563e+01 0.000000e+00
      vertex 0.000000e+00 -5.256581e+01 0.000000e+00
    endloop
  endfacet
  facet normal -0.000000e+00 -0.000000e+00 -1.000000e+00
    outer loop
      vertex 4.102633e-01 -5.232895e+01 0.000000e+00
      vertex 1.194868e+02 -5.288563e+01 0.000000e+00
      vertex 0.000000e+00 -5.288563e+01 0.000000e+00
    endloop
  endfacet
  facet normal -0.000000e+00 -0.000000e+00 -1.000000e+00
    outer loop
      vertex 1.196386e+02 -5.232895e+01 0.000000e+00
      vertex 1.194868e+02 -5.288563e+01 0.000000e+00
      vertex 4.102633e-01 -5.232895e+01 0.000000e+00
    endloop
  endfacet
  facet normal -0.000000e+00 -0.000000e+00 -1.000000e+00
    outer loop
      vertex 1.196386e+02 -5.232895e+01 0.000000e+00
      vertex 1.201953e+02 -5.217709e+01 0.000000e+00
      vertex 1.194868e+02 -5.288563e+01 0.000000e+00
    endloop
  endfacet
  facet normal -0.000000e+00 -0.000000e+00 -1.000000e+00
    outer loop
      vertex 1.196386e+02 -5.217709e+01 0.000000e+00
      vertex 1.201953e+02 -5.217709e+01 0.000000e+00
      vertex 1.196386e+02 -5.232895e+01 0.000000e+00
    endloop
  endfacet
  facet normal 0.000000e+00 0.000000e+00 1.000000e+00
    outer loop
      vertex 4.102633e-01 -5.232895e+01 2.997925e-01
      vertex 0.000000e+00 -5.256581e+01 2.997925e-01
      vertex 0.000000e+00 -5.288563e+01 2.997925e-01
    endloop
  endfacet
  facet normal 0.000000e+00 0.000000e+00 1.000000e+00
    outer loop
      vertex 1.194868e+02 -5.288563e+01 2.997925e-01
      vertex 4.102633e-01 -5.232895e+01 2.997925e-01
      vertex 0.000000e+00 -5.288563e+01 2.997925e-01
    endloop
  endfacet
  facet normal 0.000000e+00 0.000000e+00 1.000000e+00
    outer loop
      vertex 1.196386e+02 -5.232895e+01 2.997925e-01
      vertex 4.102633e-01 -5.232895e+01 2.997925e-01
      vertex 1.194868e+02 -5.288563e+01 2.997925e-01
    endloop
  endfacet
  facet normal 0.000000e+00 0.000000e+00 1.000000e+00
    outer loop
      vertex 1.201953e+02 -5.217709e+01 2.997925e-01
      vertex 1.196386e+02 -5.232895e+01 2.997925e-01
      vertex 1.194868e+02 -5.288563e+01 2.997925e-01
    endloop
  endfacet
  facet normal 0.000000e+00 0.000000e+00 1.000000e+00
    outer loop
      vertex 1.196386e+02 -5.217709e+01 2.997925e-01
      vertex 1.196386e+02 -5.232895e+01 2.997925e-01
      vertex 1.201953e+02 -5.217709e+01 2.997925e-01
    endloop
  endfacet
  facet normal -1.000000e+00 0.000000e+00 0.000000e+00
    outer loop
      vertex 1.196386e+02 -5.232895e+01 2.997925e-01
      vertex 1.196386e+02 -5.217709e+01 2.997925e-01
      vertex 1.196386e+02 -5.217709e+01 0.000000e+00
    endloop
  endfacet
  facet normal -1.000000e+00 0.000000e+00 0.000000e+00
    outer loop
      vertex 1.196386e+02 -5.232895e+01 2.997925e-01
      vertex 1.196386e+02 -5.217709e+01 0.000000e+00
      vertex 1.196386e+02 -5.232895e+01 0.000000e+00
    endloop
  endfacet
  facet normal 0.000000e+00 1.000000e+00 -0.000000e+00
    outer loop
      vertex 4.102633e-01 -5.232895e+01 2.997925e-01
      vertex 1.196386e+02 -5.232895e+01 2.997925e-01
      vertex 1.196386e+02 -5.232895e+01 0.000000e+00
    endloop
  endfacet
  facet normal 0.000000e+00 1.000000e+00 -0.000000e+00
    outer loop
      vertex 4.102633e-01 -5.232895e+01 2.997925e-01
      vertex 1.196386e+02 -5.232895e+01 0.000000e+00
      vertex 4.102633e-01 -5.232895e+01 0.000000e+00
    endloop
  endfacet
  facet normal -5.000000e-01 8.660254e-01 0.000000e+00
    outer loop
      vertex 0.000000e+00 -5.256581e+01 2.997925e-01
      vertex 4.102633e-01 -5.232895e+01 2.997925e-01
      vertex 4.102633e-01 -5.232895e+01 0.000000e+00
    endloop
  endfacet
  facet normal -5.000000e-01 8.660254e-01 0.000000e+00
    outer loop
      vertex 0.000000e+00 -5.256581e+01 2.997925e-01
      vertex 4.102633e-01 -5.232895e+01 0.000000e+00
      vertex 0.000000e+00 -5.256581e+01 0.000000e+00
    endloop
  endfacet
  facet normal -1.000000e+00 0.000000e+00 0.000000e+00
    outer loop
      vertex 0.000000e+00 -5.288563e+01 2.997925e-01
      vertex 0.000000e+00 -5.256581e+01 2.997925e-01
      vertex 0.000000e+00 -5.256581e+01 0.000000e+00
    endloop
  endfacet
  facet normal -1.000000e+00 0.000000e+00 0.000000e+00
    outer loop
      vertex 0.000000e+00 -5.288563e+01 2.997925e-01
      vertex 0.000000e+00 -5.256581e+01 0.000000e+00
      vertex 0.000000e+00 -5.288563e+01 0.000000e+00
    endloop
  endfacet
  facet normal 0.000000e+00 -1.000000e+00 0.000000e+00
    outer loop
      vertex 1.194868e+02 -5.288563e+01 2.997925e-01
      vertex 0.000000e+00 -5.288563e+01 2.997925e-01
      vertex 0.000000e+00 -5.288563e+01 0.000000e+00
    endloop
  endfacet
  facet normal 0.000000e+00 -1.000000e+00 0.000000e+00
    outer loop
      vertex 1.194868e+02 -5.288563e+01 2.997925e-01
      vertex 0.000000e+00 -5.288563e+01 0.000000e+00
      vertex 1.194868e+02 -5.288563e+01 0.000000e+00
    endloop
  endfacet
  facet normal 7.071068e-01 -7.071068e-01 0.000000e+00
    outer loop
      vertex 1.201953e+02 -5.217709e+01 2.997925e-01
      vertex 1.194868e+02 -5.288563e+01 2.997925e-01
      vertex 1.194868e+02 -5.288563e+01 0.000000e+00
    endloop
  endfacet
  facet normal 7.071068e-01 -7.071068e-01 0.000000e+00
    outer loop
      vertex 1.201953e+02 -5.217709e+01 2.997925e-01
      vertex 1.194868e+02 -5.288563e+01 0.000000e+00
      vertex 1.201953e+02 -5.217709e+01 0.000000e+00
    endloop
  endfacet
  facet normal 0.000000e+00 1.000000e+00 -0.000000e+00
    outer loop
      vertex 1.196386e+02 -5.217709e+01 2.997925e-01
      vertex 1.201953e+02 -5.217709e+01 2.997925e-01
      vertex 1.201953e+02 -5.217709e+01 0.000000e+00
    endloop
  endfacet
  facet normal 0.000000e+00 1.000000e+00 -0.000000e+00
    outer loop
      vertex 1.196386e+02 -5.217709e+01 2.997925e-01
      vertex 1.201953e+02 -5.217709e+01 0.000000e+00
      vertex 1.196386e+02 -5.217709e+01 0.000000e+00
    endloop
  endfacet
endsolid antenna:feed
solid antenna:feed_line
  facet normal 1.000000e+00 -0.000000e+00 -0.000000e+00
    outer loop
      vertex 1.201953e+02 -5.217709e+01 2.997925e-01
      vertex 1.201953e+02 -5.217709e+01 0.000000e+00
      vertex 1.201953e+02 6.885581e+01 0.000000e+00
    endloop
  endfacet
  facet normal 1.000000e+00 -0.000000e+00 -0.000000e+00
    outer loop
      vertex 1.201953e+02 -5.217709e+01 2.997925e-01
      vertex 1.201953e+02 6.885581e+01 0.000000e+00
      vertex 1.201953e+02 6.885581e+01 2.997925e-01
    endloop
  endfacet
  facet normal -0.000000e+00 1.000000e+00 -0.000000e+00
    outer loop
      vertex 1.201953e+02 6.885581e+01 2.997925e-01
      vertex 1.201953e+02 6.885581e+01 0.000000e+00
      vertex 1.196386e+02 6.885581e+01 0.000000e+00
    endloop
  endfacet
  facet normal -0.000000e+00 1.000000e+00 -0.000000e+00
    outer loop
      vertex 1.201953e+02 6.885581e+01 2.997925e-01
      vertex 1.196386e+02 6.885581e+01 0.000000e+00
      vertex 1.196386e+02 6.885581e+01 2.997925e-01
    endloop
  endfacet
  facet normal -1.000000e+00 -0.000000e+00 -0.000000e+00
    outer loop
      vertex 1.196386e+02 6.885581e+01 2.997925e-01
      vertex 1.196386e+02 6.885581e+01 0.000000e+00
      vertex 1.196386e+02 -5.217709e+01 0.000000e+00
    endloop
  endfacet
  facet normal -1.000000e+00 -0.000000e+00 -0.000000e+00
    outer loop
      vertex 1.196386e+02 6.885581e+01 2.997925e-01
      vertex 1.196386e+02 -5.217709e+01 0.000000e+00
      vertex 1.196386e+02 -5.217709e+01 2.997925e-01
    endloop
  endfacet
  facet normal -0.000000e+00 -1.000000e+00 -0.000000e+00
    outer loop
      vertex 1.196386e+02 -5.217709e+01 2.997925e-01
      vertex 1.196386e+02 -5.217709e+01 0.000000e+00
      vertex 1.201953e+02 -5.217709e+01 0.000000e+00
    endloop
  endfacet
  facet normal -0.000000e+00 -1.000000e+00 -0.000000e+00
    outer loop
      vertex 1.196386e+02 -5.217709e+01 2.997925e-01
      vertex 1.201953e+02 -5.217709e+01 0.000000e+00
      vertex 1.201953e+02 -5.217709e+01 2.997925e-01
    endloop
  endfacet
  facet normal -0.000000e+00 -0.000000e+00 -1.000000e+00
    outer loop
      vertex 1.201953e+02 6.885581e+01 0.000000e+00
      vertex 1.201953e+02 -5.217709e+01 0.000000e+00
      vertex 1.196386e+02 -5.217709e+01 0.000000e+00
    endloop
  endfacet
  facet normal -0.000000e+00 -0.000000e+00 -1.000000e+00
    outer loop
      vertex 1.201953e+02 6.885581e+01 0.000000e+00
      vertex 1.196386e+02 -5.217709e+01 0.000000e+00
      vertex 1.196386e+02 6.885581e+01 0.000000e+00
    endloop
  endfacet
  facet normal 0.000000e+00 0.000000e+00 1.000000e+00
    outer loop
      vertex 1.201953e+02 -5.217709e+01 2.997925e-01
      vertex 1.201953e+02 6.885581e+01 2.997925e-01
      vertex 1.196386e+02 6.885581e+01 2.997925e-01
    endloop
  endfacet
  facet normal 0.000000e+00 0.000000e+00 1.000000e+00
    outer loop
      vertex 1.201953e+02 -5.217709e+01 2.997925e-01
      vertex 1.196386e+02 6.885581e+01 2.997925e-01
      vertex 1.196386e+02 -5.217709e+01 2.997925e-01
    endloop
  endfacet
endsolid antenna:feed_line
solid antenna:feed_line_1
  facet normal -1.000000e+00 -0.000000e+00 -1.224647e-16
    outer loop
      vertex -1.201953e+02 -5.217709e+01 -1.471046e-14
      vertex -1.201953e+02 -5.217709e+01 2.997925e-01
      vertex -1.201953e+02 6.885581e+01 2.997925e-01
    endloop
  endfacet
  facet normal -1.000000e+00 -0.000000e+00 -1.224647e-16
    outer loop
      vertex -1.201953e+02 -5.217709e+01 -1.471046e-14
      vertex -1.201953e+02 6.885581e+01 2.997925e-01
      vertex -1.201953e+02 6.885581e+01 -1.471046e-14
    endloop
  endfacet
  facet normal -0.000000e+00 1.000000e+00 0.000000e+00
    outer loop
      vertex -1.196386e+02 6.885581e+01 -1.465494e-14
      vertex -1.201953e+02 6.885581e+01 -1.471046e-14
      vertex -1.201953e+02 6.885581e+01 2.997925e-01
    endloop
  endfacet
  facet normal -0.000000e+00 1.000000e+00 0.000000e+00
    outer loop
      vertex -1.196386e+02 6.885581e+01 -1.465494e-14
      vertex -1.201953e+02 6.885581e+01 2.997925e-01
      vertex -1.196386e+02 6.885581e+01 2.997925e-01
    endloop
  endfacet
  facet normal 1.000000e+00 -0.000000e+00 1.224647e-16
    outer loop
      vertex -1.196386e+02 6.885581e+01 -1.465494e-14
      vertex -1.196386e+02 6.885581e+01 2.997925e-01
      vertex -1.196386e+02 -5.217709e+01 2.997925e-01
    endloop
  endfacet
  facet normal 1.000000e+00 -0.000000e+00 1.224647e-16
    outer loop
      vertex -1.196386e+02 6.885581e+01 -1.465494e-14
      vertex -1.196386e+02 -5.217709e+01 2.997925e-01
      vertex -1.196386e+02 -5.217709e+01 -1.465494e-14
    endloop
  endfacet
  facet normal -0.000000e+00 -1.000000e+00 -0.000000e+00
    outer loop
      vertex -1.196386e+02 -5.217709e+01 -1.465494e-14
      vertex -1.196386e+02 -5.217709e+01 2.997925e-01
      vertex -1.201953e+02 -5.217709e+01 2.997925e-01
    endloop
  endfacet
  facet normal -0.000000e+00 -1.000000e+00 -0.000000e+00
    outer loop
      vertex -1.196386e+02 -5.217709e+01 -1.465494e-14
      vertex -1.201953e+02 -5.217709e+01 2.997925e-01
      vertex -1.201953e+02 -5.217709e+01 -1.471046e-14
    endloop
  endfacet
  facet normal -1.224647e-16 -0.000000e+00 1.000000e+00
    outer loop
      vertex -1.201953e+02 6.885581e+01 2.997925e-01
      vertex -1.201953e+02 -5.217709e+01 2.997925e-01
      vertex -1.196386e+02 -5.217709e+01 2.997925e-01
    endloop
  endfacet
  facet normal -1.224647e-16 -0.000000e+00 1.000000e+00
    outer loop
      vertex -1.201953e+02 6.885581e+01 2.997925e-01
      vertex -1.196386e+02 -5.217709e+01 2.997925e-01
      vertex -1.196386e+02 6.885581e+01 2.997925e-01
    endloop
  endfacet
  facet normal 1.224647e-16 0.000000e+00 -1.000000e+00
    outer loop
      vertex -1.201953e+02 -5.217709e+01 -1.471046e-14
      vertex -1.201953e+02 6.885581e+01 -1.471046e-14
      vertex -1.196386e+02 6.885581e+01 -1.465494e-14
    endloop
  endfacet
  facet normal 1.224647e-16 0.000000e+00 -1.000000e+00
    outer loop
      vertex -1.201953e+02 -5.217709e+01 -1.471046e-14
      vertex -1.196386e+02 6.885581e+01 -1.465494e-14
      vertex -1.196386e+02 -5.217709e+01 -1.465494e-14
    endloop
  endfacet
endsolid antenna:feed_line_1
solid antenna:feed_1
  facet normal -1.224647e-16 -0.000000e+00 1.000000e+00
    outer loop
      vertex -4.102633e-01 -5.232895e+01 2.997925e-01
      vertex -1.835699e-17 -5.288563e+01 2.997925e-01
      vertex -1.835699e-17 -5.256581e+01 2.997925e-01
    endloop
  endfacet
  facet normal -1.224647e-16 -0.000000e+00 1.000000e+00
    outer loop
      vertex -4.102633e-01 -5.232895e+01 2.997925e-01
      vertex -1.194868e+02 -5.288563e+01 2.997925e-01
      vertex -1.835699e-17 -5.288563e+01 2.997925e-01
    endloop
  endfacet
  facet normal -1.224647e-16 -0.000000e+00 1.000000e+00
    outer loop
      vertex -1.196386e+02 -5.232895e+01 2.997925e-01
      vertex -1.194868e+02 -5.288563e+01 2.997925e-01
      vertex -4.102633e-01 -5.232895e+01 2.997925e-01
    endloop
  endfacet
  facet normal -1.224647e-16 -0.000000e+00 1.000000e+00
    outer loop
      vertex -1.196386e+02 -5.232895e+01 2.997925e-01
      vertex -1.201953e+02 -5.217709e+01 2.997925e-01
      vertex -1.194868e+02 -5.288563e+01 2.997925e-01
    endloop
  endfacet
  facet normal -1.224647e-16 -0.000000e+00 1.000000e+00
    outer loop
      vertex -1.196386e+02 -5.217709e+01 2.997925e-01
      vertex -1.201953e+02 -5.217709e+01 2.997925e-01
      vertex -1.196386e+02 -5.232895e+01 2.997925e-01
    endloop
  endfacet
  facet normal 1.224647e-16 0.000000e+00 -1.000000e+00
    outer loop
      vertex -4.102633e-01 -5.232895e+01 -1.110223e-16
      vertex 1.835699e-17 -5.256581e+01 -5.551115e-17
      vertex 1.835699e-17 -5.288563e+01 -5.551115e-17
    endloop
  endfacet
  facet normal 1.224647e-16 0.000000e+00 -1.000000e+00
    outer loop
      vertex -1.194868e+02 -5.288563e+01 -1.471046e-14
      vertex -4.102633e-01 -5.232895e+01 -1.110223e-16
      vertex 1.835699e-17 -5.288563e+01 -5.551115e-17
    endloop
  endfacet
  facet normal 1.224647e-16 0.000000e+00 -1.000000e+00
    outer loop
      vertex -1.196386e+02 -5.232895e+01 -1.471046e-14
      vertex -4.102633e-01 -5.232895e+01 -1.110223e-16
      vertex -1.194868e+02 -5.288563e+01 -1.471046e-14
    endloop
  endfacet
  facet normal 1.224647e-16 0.000000e+00 -1.000000e+00
    outer loop
      vertex -1.201953e+02 -5.217709e+01 -1.476597e-14
      vertex -1.196386e+02 -5.232895e+01 -1.471046e-14
      vertex -1.194868e+02 -5.288563e+01 -1.471046e-14
    endloop
  endfacet
  facet normal 1.224647e-16 0.000000e+00 -1.000000e+00
    outer loop
      vertex -1.196386e+02 -5.217709e+01 -1.471046e-14
      vertex -1.196386e+02 -5.232895e+01 -1.471046e-14
      vertex -1.201953e+02 -5.217709e+01 -1.476597e-14
    endloop
  endfacet
  facet normal 1.000000e+00 0.000000e+00 1.224647e-16
    outer loop
      vertex -1.196386e+02 -5.232895e+01 -1.471046e-14
      vertex -1.196386e+02 -5.217709e+01 -1.471046e-14
      vertex -1.196386e+02 -5.217709e+01 2.997925e-01
    endloop
  endfacet
  facet normal 1.000000e+00 0.000000e+00 1.224647e-16
    outer loop
      vertex -1.196386e+02 -5.232895e+01 -1.471046e-14
      vertex -1.196386e+02 -5.217709e+01 2.997925e-01
      vertex -1.196386e+02 -5.232895e+01 2.997925e-01
    endloop
  endfacet
  facet normal 0.000000e+00 1.000000e+00 0.000000e+00
    outer loop
      vertex -4.102633e-01 -5.232895e+01 -1.110223e-16
      vertex -1.196386e+02 -5.232895e+01 -1.471046e-14
      vertex -1.196386e+02 -5.232895e+01 2.997925e-01
    endloop
  endfacet
  facet normal 0.000000e+00 1.000000e+00 0.000000e+00
    outer loop
      vertex -4.102633e-01 -5.232895e+01 -1.110223e-16
      vertex -1.196386e+02 -5.232895e+01 2.997925e-01
      vertex -4.102633e-01 -5.232895e+01 2.997925e-01
    endloop
  endfacet
  facet normal 5.000000e-01 8.660254e-01 6.123234e-17
    outer loop
      vertex 1.835699e-17 -5.256581e+01 -5.551115e-17
      vertex -4.102633e-01 -5.232895e+01 -1.110223e-16
      vertex -4.102633e-01 -5.232895e+01 2.997925e-01
    endloop
  endfacet
  facet normal 5.000000e-01 8.660254e-01 6.123234e-17
    outer loop
      vertex 1.835699e-17 -5.256581e+01 -5.551115e-17
      vertex -4.102633e-01 -5.232895e+01 2.997925e-01
      vertex -1.835699e-17 -5.256581e+01 2.997925e-01
    endloop
  endfacet
  facet normal 1.000000e+00 0.000000e+00 1.224647e-16
    outer loop
      vertex 1.835699e-17 -5.288563e+01 -5.551115e-17
      vertex 1.835699e-17 -5.256581e+01 -5.551115e-17
      vertex -1.835699e-17 -5.256581e+01 2.997925e-01
    endloop
  endfacet
  facet normal 1.000000e+00 0.000000e+00 1.224647e-16
    outer loop
      vertex 1.835699e-17 -5.288563e+01 -5.551115e-17
      vertex -1.835699e-17 -5.256581e+01 2.997925e-01
      vertex -1.835699e-17 -5.288563e+01 2.997925e-01
    endloop
  endfacet
  facet normal 0.000000e+00 -1.000000e+00 -0.000000e+00
    outer loop
      vertex -1.194868e+02 -5.288563e+01 -1.471046e-14
      vertex 1.835699e-17 -5.288563e+01 -5.551115e-17
      vertex -1.835699e-17 -5.288563e+01 2.997925e-01
    endloop
  endfacet
  facet normal 0.000000e+00 -1.000000e+00 -0.000000e+00
    outer loop
      vertex -1.194868e+02 -5.288563e+01 -1.471046e-14
      vertex -1.835699e-17 -5.288563e+01 2.997925e-01
      vertex -1.194868e+02 -5.288563e+01 2.997925e-01
    endloop
  endfacet
  facet normal -7.071068e-01 -7.071068e-01 -8.659561e-17
    outer loop
      vertex -1.201953e+02 -5.217709e+01 -1.476597e-14
      vertex -1.194868e+02 -5.288563e+01 -1.471046e-14
      vertex -1.194868e+02 -5.288563e+01 2.997925e-01
    endloop
  endfacet
  facet normal -7.071068e-01 -7.071068e-01 -8.659561e-17
    outer loop
      vertex -1.201953e+02 -5.217709e+01 -1.476597e-14
      vertex -1.194868e+02 -5.288563e+01 2.997925e-01
      vertex -1.201953e+02 -5.217709e+01 2.997925e-01
    endloop
  endfacet
  facet normal 0.000000e+00 1.000000e+00 0.000000e+00
    outer loop
      vertex -1.196386e+02 -5.217709e+01 -1.471046e-14
      vertex -1.201953e+02 -5.217709e+01 -1.476597e-14
      vertex -1.201953e+02 -5.217709e+01 2.997925e-01
    endloop
  endfacet
  facet normal 0.000000e+00 1.000000e+00 0.000000e+00
    outer loop
      vertex -1.196386e+02 -5.217709e+01 -1.471046e-14
      vertex -1.201953e+02 -5.217709e+01 2.997925e-01
      vertex -1.196386e+02 -5.217709e+01 2.997925e-01
    endloop
  endfacet
endsolid antenna:feed_1
solid antenna:patch_1
  facet normal -1.224647e-16 -0.000000e+00 1.000000e+00
    outer loop
      vertex -5.872210e+01 1.709781e+02 2.997925e-01
      vertex -1.811119e+02 1.709781e+02 2.997925e-01
      vertex -1.811119e+02 6.885581e+01 2.997925e-01
    endloop
  endfacet
  facet normal -1.224647e-16 -0.000000e+00 1.000000e+00
    outer loop
      vertex -5.872210e+01 1.709781e+02 2.997925e-01
      vertex -1.811119e+02 6.885581e+01 2.997925e-01
      vertex -5.872210e+01 6.885581e+01 2.997925e-01
    endloop
  endfacet
  facet normal 1.224647e-16 0.000000e+00 -1.000000e+00
    outer loop
      vertex -1.811119e+02 6.885581e+01 -2.220446e-14
      vertex -1.811119e+02 1.709781e+02 -2.220446e-14
      vertex -5.872210e+01 1.709781e+02 -7.216450e-15
    endloop
  endfacet
  facet normal 1.224647e-16 0.000000e+00 -1.000000e+00
    outer loop
      vertex -1.811119e+02 6.885581e+01 -2.220446e-14
      vertex -5.872210e+01 1.709781e+02 -7.216450e-15
      vertex -5.872210e+01 6.885581e+01 -7.216450e-15
    endloop
  endfacet
  facet normal 0.000000e+00 1.000000e+00 0.000000e+00
    outer loop
      vertex -5.872210e+01 1.709781e+02 -7.216450e-15
      vertex -1.811119e+02 1.709781e+02 -2.220446e-14
      vertex -1.811119e+02 1.709781e+02 2.997925e-01
    endloop
  endfacet
  facet normal 0.000000e+00 1.000000e+00 0.000000e+00
    outer loop
      vertex -5.872210e+01 1.709781e+02 -7.216450e-15
      vertex -1.811119e+02 1.709781e+02 2.997925e-01
      vertex -5.872210e+01 1.709781e+02 2.997925e-01
    endloop
  endfacet
  facet normal 1.000000e+00 0.000000e+00 1.224647e-16
    outer loop
      vertex -5.872210e+01 6.885581e+01 -7.216450e-15
      vertex -5.872210e+01 1.709781e+02 -7.216450e-15
      vertex -5.872210e+01 1.709781e+02 2.997925e-01
    endloop
  endfacet
  facet normal 1.000000e+00 0.000000e+00 1.224647e-16
    outer loop
      vertex -5.872210e+01 6.885581e+01 -7.216450e-15
      vertex -5.872210e+01 1.709781e+02 2.997925e-01
      vertex -5.872210e+01 6.885581e+01 2.997925e-01
    endloop
  endfacet
  facet normal 0.000000e+00 -1.000000e+00 -0.000000e+00
    outer loop
      vertex -1.811119e+02 6.885581e+01 -2.220446e-14
      vertex -5.872210e+01 6.885581e+01 -7.216450e-15
      vertex -5.872210e+01 6.885581e+01 2.997925e-01
    endloop
  endfacet
  facet normal 0.000000e+00 -1.000000e+00 -0.000000e+00
    outer loop
      vertex -1.811119e+02 6.885581e+01 -2.220446e-14
      vertex -5.872210e+01 6.885581e+01 2.997925e-01
      vertex -1.811119e+02 6.885581e+01 2.997925e-01
    endloop
  endfacet
  facet normal -1.000000e+00 0.000000e+00 -1.224647e-16
    outer loop
      vertex -1.811119e+02 1.709781e+02 -2.220446e-14
      vertex -1.811119e+02 6.885581e+01 -2.220446e-14
      vertex -1.811119e+02 6.885581e+01 2.997925e-01
    endloop
  endfacet
  facet normal -1.000000e+00 0.000000e+00 -1.224647e-16
    outer loop
      vertex -1.811119e+02 1.709781e+02 -2.220446e-14
      vertex -1.811119e+02 6.885581e+01 2.997925e-01
      vertex -1.811119e+02 1.709781e+02 2.997925e-01
    endloop
  endfacet
endsolid antenna:patch_1
solid antenna:feed2
  facet normal -0.000000e+00 -0.000000e+00 -1.000000e+00
    outer loop
      vertex 4.102633e-01 -2.927196e+02 0.000000e+00
      vertex 0.000000e+00 -2.921629e+02 0.000000e+00
      vertex 1.196386e+02 -2.921629e+02 0.000000e+00
    endloop
  endfacet
  facet normal -0.000000e+00 -0.000000e+00 -1.000000e+00
    outer loop
      vertex 0.000000e+00 -2.923998e+02 0.000000e+00
      vertex 0.000000e+00 -2.921629e+02 0.000000e+00
      vertex 4.102633e-01 -2.927196e+02 0.000000e+00
    endloop
  endfacet
  facet normal -0.000000e+00 -0.000000e+00 -1.000000e+00
    outer loop
      vertex 1.196386e+02 -2.921629e+02 0.000000e+00
      vertex 1.194868e+02 -2.927196e+02 0.000000e+00
      vertex 4.102633e-01 -2.927196e+02 0.000000e+00
    endloop
  endfacet
  facet normal -0.000000e+00 -0.000000e+00 -1.000000e+00
    outer loop
      vertex 1.196386e+02 -2.921629e+02 0.000000e+00
      vertex 1.201953e+02 -2.920110e+02 0.000000e+00
      vertex 1.194868e+02 -2.927196e+02 0.000000e+00
    endloop
  endfacet
  facet normal -0.000000e+00 -0.000000e+00 -1.000000e+00
    outer loop
      vertex 1.196386e+02 -2.920110e+02 0.000000e+00
      vertex 1.201953e+02 -2.920110e+02 0.000000e+00
      vertex 1.196386e+02 -2.921629e+02 0.000000e+00
    endloop
  endfacet
  facet normal 0.000000e+00 0.000000e+00 1.000000e+00
    outer loop
      vertex 4.102633e-01 -2.927196e+02 2.997925e-01
      vertex 0.000000e+00 -2.921629e+02 2.997925e-01
      vertex 0.000000e+00 -2.923998e+02 2.997925e-01
    endloop
  endfacet
  facet normal 0.000000e+00 0.000000e+00 1.000000e+00
    outer loop
      vertex 4.102633e-01 -2.927196e+02 2.997925e-01
      vertex 1.196386e+02 -2.921629e+02 2.997925e-01
      vertex 0.000000e+00 -2.921629e+02 2.997925e-01
    endloop
  endfacet
  facet normal 0.000000e+00 0.000000e+00 1.000000e+00
    outer loop
      vertex 1.194868e+02 -2.927196e+02 2.997925e-01
      vertex 1.196386e+02 -2.921629e+02 2.997925e-01
      vertex 4.102633e-01 -2.927196e+02 2.997925e-01
    endloop
  endfacet
  facet normal 0.000000e+00 0.000000e+00 1.000000e+00
    outer loop
      vertex 1.201953e+02 -2.920110e+02 2.997925e-01
      vertex 1.196386e+02 -2.921629e+02 2.997925e-01
      vertex 1.194868e+02 -2.927196e+02 2.997925e-01
    endloop
  endfacet
  facet normal 0.000000e+00 0.000000e+00 1.000000e+00
    outer loop
      vertex 1.196386e+02 -2.920110e+02 2.997925e-01
      vertex 1.196386e+02 -2.921629e+02 2.997925e-01
      vertex 1.201953e+02 -2.920110e+02 2.997925e-01
    endloop
  endfacet
  facet normal -1.000000e+00 0.000000e+00 0.000000e+00
    outer loop
      vertex 1.196386e+02 -2.921629e+02 2.997925e-01
      vertex 1.196386e+02 -2.920110e+02 2.997925e-01
      vertex 1.196386e+02 -2.920110e+02 0.000000e+00
    endloop
  endfacet
  facet normal -1.000000e+00 0.000000e+00 0.000000e+00
    outer loop
      vertex 1.196386e+02 -2.921629e+02 2.997925e-01
      vertex 1.196386e+02 -2.920110e+02 0.000000e+00
      vertex 1.196386e+02 -2.921629e+02 0.000000e+00
    endloop
  endfacet
  facet normal 0.000000e+00 1.000000e+00 -0.000000e+00
    outer loop
      vertex 0.000000e+00 -2.921629e+02 2.997925e-01
      vertex 1.196386e+02 -2.921629e+02 2.997925e-01
      vertex 1.196386e+02 -2.921629e+02 0.000000e+00
    endloop
  endfacet
  facet normal 0.000000e+00 1.000000e+00 -0.000000e+00
    outer loop
      vertex 0.000000e+00 -2.921629e+02 2.997925e-01
      vertex 1.196386e+02 -2.921629e+02 0.000000e+00
      vertex 0.000000e+00 -2.921629e+02 0.000000e+00
    endloop
  endfacet
  facet normal -1.000000e+00 0.000000e+00 0.000000e+00
    outer loop
      vertex 0.000000e+00 -2.923998e+02 2.997925e-01
      vertex 0.000000e+00 -2.921629e+02 2.997925e-01
      vertex 0.000000e+00 -2.921629e+02 0.000000e+00
    endloop
  endfacet
  facet normal -1.000000e+00 0.000000e+00 0.000000e+00
    outer loop
      vertex 0.000000e+00 -2.923998e+02 2.997925e-01
      vertex 0.000000e+00 -2.921629e+02 0.000000e+00
      vertex 0.000000e+00 -2.923998e+02 0.000000e+00
    endloop
  endfacet
  facet normal -6.147987e-01 -7.886841e-01 0.000000e+00
    outer loop
      vertex 4.102633e-01 -2.927196e+02 2.997925e-01
      vertex 0.000000e+00 -2.923998e+02 2.997925e-01
      vertex 0.000000e+00 -2.923998e+02 0.000000e+00
    endloop
  endfacet
  facet normal -6.147987e-01 -7.886841e-01 0.000000e+00
    outer loop
      vertex 4.102633e-01 -2.927196e+02 2.997925e-01
      vertex 0.000000e+00 -2.923998e+02 0.000000e+00
      vertex 4.102633e-01 -2.927196e+02 0.000000e+00
    endloop
  endfacet
  facet normal 0.000000e+00 -1.000000e+00 0.000000e+00
    outer loop
      vertex 1.194868e+02 -2.927196e+02 2.997925e-01
      vertex 4.102633e-01 -2.927196e+02 2.997925e-01
      vertex 4.102633e-01 -2.927196e+02 0.000000e+00
    endloop
  endfacet
  facet normal 0.000000e+00 -1.000000e+00 0.000000e+00
    outer loop
      vertex 1.194868e+02 -2.927196e+02 2.997925e-01
      vertex 4.102633e-01 -2.927196e+02 0.000000e+00
      vertex 1.194868e+02 -2.927196e+02 0.000000e+00
    endloop
  endfacet
  facet normal 7.071068e-01 -7.071068e-01 0.000000e+00
    outer loop
      vertex 1.201953e+02 -2.920110e+02 2.997925e-01
      vertex 1.194868e+02 -2.927196e+02 2.997925e-01
      vertex 1.194868e+02 -2.927196e+02 0.000000e+00
    endloop
  endfacet
  facet normal 7.071068e-01 -7.071068e-01 0.000000e+00
    outer loop
      vertex 1.201953e+02 -2.920110e+02 2.997925e-01
      vertex 1.194868e+02 -2.927196e+02 0.000000e+00
      vertex 1.201953e+02 -2.920110e+02 0.000000e+00
    endloop
  endfacet
  facet normal 0.000000e+00 1.000000e+00 -0.000000e+00
    outer loop
      vertex 1.196386e+02 -2.920110e+02 2.997925e-01
      vertex 1.201953e+02 -2.920110e+02 2.997925e-01
      vertex 1.201953e+02 -2.920110e+02 0.000000e+00
    endloop
  endfacet
  facet normal 0.000000e+00 1.000000e+00 -0.000000e+00
    outer loop
      vertex 1.196386e+02 -2.920110e+02 2.997925e-01
      vertex 1.201953e+02 -2.920110e+02 0.000000e+00
      vertex 1.196386e+02 -2.920110e+02 0.000000e+00
    endloop
  endfacet
endsolid antenna:feed2
solid antenna:patch2
  facet normal -0.000000e+00 -0.000000e+00 -1.000000e+00
    outer loop
      vertex 5.872210e+01 -6.885581e+01 0.000000e+00
      vertex 1.811119e+02 -6.885581e+01 0.000000e+00
      vertex 1.811119e+02 -1.709781e+02 0.000000e+00
    endloop
  endfacet
  facet normal -0.000000e+00 -0.000000e+00 -1.000000e+00
    outer loop
      vertex 5.872210e+01 -6.885581e+01 0.000000e+00
      vertex 1.811119e+02 -1.709781e+02 0.000000e+00
      vertex 5.872210e+01 -1.709781e+02 0.000000e+00
    endloop
  endfacet
  facet normal 0.000000e+00 0.000000e+00 1.000000e+00
    outer loop
      vertex 1.811119e+02 -1.709781e+02 2.997925e-01
      vertex 1.811119e+02 -6.885581e+01 2.997925e-01
      vertex 5.872210e+01 -6.885581e+01 2.997925e-01
    endloop
  endfacet
  facet normal 0.000000e+00 0.000000e+00 1.000000e+00
    outer loop
      vertex 1.811119e+02 -1.709781e+02 2.997925e-01
      vertex 5.872210e+01 -6.885581e+01 2.997925e-01
      vertex 5.872210e+01 -1.709781e+02 2.997925e-01
    endloop
  endfacet
  facet normal 0.000000e+00 1.000000e+00 -0.000000e+00
    outer loop
      vertex 5.872210e+01 -6.885581e+01 2.997925e-01
      vertex 1.811119e+02 -6.885581e+01 2.997925e-01
      vertex 1.811119e+02 -6.885581e+01 0.000000e+00
    endloop
  endfacet
  facet normal 0.000000e+00 1.000000e+00 -0.000000e+00
    outer loop
      vertex 5.872210e+01 -6.885581e+01 2.997925e-01
      vertex 1.811119e+02 -6.885581e+01 0.000000e+00
      vertex 5.872210e+01 -6.885581e+01 0.000000e+00
    endloop
  endfacet
  facet normal -1.000000e+00 0.000000e+00 0.000000e+00
    outer loop
      vertex 5.872210e+01 -1.709781e+02 2.997925e-01
      vertex 5.872210e+01 -6.885581e+01 2.997925e-01
      vertex 5.872210e+01 -6.885581e+01 0.000000e+00
    endloop
  endfacet
  facet normal -1.000000e+00 0.000000e+00 0.000000e+00
    outer loop
      vertex 5.872210e+01 -1.709781e+02 2.997925e-01
      vertex 5.872210e+01 -6.885581e+01 0.000000e+00
      vertex 5.872210e+01 -1.709781e+02 0.000000e+00
    endloop
  endfacet
  facet normal 0.000000e+00 -1.000000e+00 0.000000e+00
    outer loop
      vertex 1.811119e+02 -1.709781e+02 2.997925e-01
      vertex 5.872210e+01 -1.709781e+02 2.997925e-01
      vertex 5.872210e+01 -1.709781e+02 0.000000e+00
    endloop
  endfacet
  facet normal 0.000000e+00 -1.000000e+00 0.000000e+00
    outer loop
      vertex 1.811119e+02 -1.709781e+02 2.997925e-01
      vertex 5.872210e+01 -1.709781e+02 0.000000e+00
      vertex 1.811119e+02 -1.709781e+02 0.000000e+00
    endloop
  endfacet
  facet normal 1.000000e+00 0.000000e+00 0.000000e+00
    outer loop
      vertex 1.811119e+02 -6.885581e+01 2.997925e-01
      vertex 1.811119e+02 -1.709781e+02 2.997925e-01
      vertex 1.811119e+02 -1.709781e+02 0.000000e+00
    endloop
  endfacet
  facet normal 1.000000e+00 0.000000e+00 0.000000e+00
    outer loop
      vertex 1.811119e+02 -6.885581e+01 2.997925e-01
      vertex 1.811119e+02 -1.709781e+02 0.000000e+00
      vertex 1.811119e+02 -6.885581e+01 0.000000e+00
    endloop
  endfacet
endsolid antenna:patch2
solid antenna:feed_line_2
  facet normal 1.000000e+00 -0.000000e+00 -0.000000e+00
    outer loop
      vertex 1.201953e+02 -2.920110e+02 2.997925e-01
      vertex 1.201953e+02 -2.920110e+02 0.000000e+00
      vertex 1.201953e+02 -1.709781e+02 0.000000e+00
    endloop
  endfacet
  facet normal 1.000000e+00 -0.000000e+00 -0.000000e+00
    outer loop
      vertex 1.201953e+02 -2.920110e+02 2.997925e-01
      vertex 1.201953e+02 -1.709781e+02 0.000000e+00
      vertex 1.201953e+02 -1.709781e+02 2.997925e-01
    endloop
  endfacet
  facet normal -0.000000e+00 1.000000e+00 -0.000000e+00
    outer loop
      vertex 1.201953e+02 -1.709781e+02 2.997925e-01
      vertex 1.201953e+02 -1.709781e+02 0.000000e+00
      vertex 1.196386e+02 -1.709781e+02 0.000000e+00
    endloop
  endfacet
  facet normal -0.000000e+00 1.000000e+00 -0.000000e+00
    outer loop
      vertex 1.201953e+02 -1.709781e+02 2.997925e-01
      vertex 1.196386e+02 -1.709781e+02 0.000000e+00
      vertex 1.196386e+02 -1.709781e+02 2.997925e-01
    endloop
  endfacet
  facet normal -1.000000e+00 -0.000000e+00 -0.000000e+00
    outer loop
      vertex 1.196386e+02 -1.709781e+02 2.997925e-01
      vertex 1.196386e+02 -1.709781e+02 0.000000e+00
      vertex 1.196386e+02 -2.920110e+02 0.000000e+00
    endloop
  endfacet
  facet normal -1.000000e+00 -0.000000e+00 -0.000000e+00
    outer loop
      vertex 1.196386e+02 -1.709781e+02 2.997925e-01
      vertex 1.196386e+02 -2.920110e+02 0.000000e+00
      vertex 1.196386e+02 -2.920110e+02 2.997925e-01
    endloop
  endfacet
  facet normal -0.000000e+00 -1.000000e+00 -0.000000e+00
    outer loop
      vertex 1.196386e+02 -2.920110e+02 2.997925e-01
      vertex 1.196386e+02 -2.920110e+02 0.000000e+00
      vertex 1.201953e+02 -2.920110e+02 0.000000e+00
    endloop
  endfacet
  facet normal -0.000000e+00 -1.000000e+00 -0.000000e+00
    outer loop
      vertex 1.196386e+02 -2.920110e+02 2.997925e-01
      vertex 1.201953e+02 -2.920110e+02 0.000000e+00
      vertex 1.201953e+02 -2.920110e+02 2.997925e-01
    endloop
  endfacet
  facet normal -0.000000e+00 -0.000000e+00 -1.000000e+00
    outer loop
      vertex 1.201953e+02 -1.709781e+02 0.000000e+00
      vertex 1.201953e+02 -2.920110e+02 0.000000e+00
      vertex 1.196386e+02 -2.920110e+02 0.000000e+00
    endloop
  endfacet
  facet normal -0.000000e+00 -0.000000e+00 -1.000000e+00
    outer loop
      vertex 1.201953e+02 -1.709781e+02 0.000000e+00
      vertex 1.196386e+02 -2.920110e+02 0.000000e+00
      vertex 1.196386e+02 -1.709781e+02 0.000000e+00
    endloop
  endfacet
  facet normal 0.000000e+00 0.000000e+00 1.000000e+00
    outer loop
      vertex 1.201953e+02 -2.920110e+02 2.997925e-01
      vertex 1.201953e+02 -1.709781e+02 2.997925e-01
      vertex 1.196386e+02 -1.709781e+02 2.997925e-01
    endloop
  endfacet
  facet normal 0.000000e+00 0.000000e+00 1.000000e+00
    outer loop
      vertex 1.201953e+02 -2.920110e+02 2.997925e-01
      vertex 1.196386e+02 -1.709781e+02 2.997925e-01
      vertex 1.196386e+02 -2.920110e+02 2.997925e-01
    endloop
  endfacet
endsolid antenna:feed_line_2
solid antenna:feed_line_2_1
  facet normal -1.000000e+00 -0.000000e+00 -1.224647e-16
    outer loop
      vertex -1.201953e+02 -2.920110e+02 -1.471046e-14
      vertex -1.201953e+02 -2.920110e+02 2.997925e-01
      vertex -1.201953e+02 -1.709781e+02 2.997925e-01
    endloop
  endfacet
  facet normal -1.000000e+00 -0.000000e+00 -1.224647e-16
    outer loop
      vertex -1.201953e+02 -2.920110e+02 -1.471046e-14
      vertex -1.201953e+02 -1.709781e+02 2.997925e-01
      vertex -1.201953e+02 -1.709781e+02 -1.471046e-14
    endloop
  endfacet
  facet normal -0.000000e+00 1.000000e+00 0.000000e+00
    outer loop
      vertex -1.196386e+02 -1.709781e+02 -1.465494e-14
      vertex -1.201953e+02 -1.709781e+02 -1.471046e-14
      vertex -1.201953e+02 -1.709781e+02 2.997925e-01
    endloop
  endfacet
  facet normal -0.000000e+00 1.000000e+00 0.000000e+00
    outer loop
      vertex -1.196386e+02 -1.709781e+02 -1.465494e-14
      vertex -1.201953e+02 -1.709781e+02 2.997925e-01
      vertex -1.196386e+02 -1.709781e+02 2.997925e-01
    endloop
  endfacet
  facet normal 1.000000e+00 -0.000000e+00 1.224647e-16
    outer loop
      vertex -1.196386e+02 -1.709781e+02 -1.465494e-14
      vertex -1.196386e+02 -1.709781e+02 2.997925e-01
      vertex -1.196386e+02 -2.920110e+02 2.997925e-01
    endloop
  endfacet
  facet normal 1.000000e+00 -0.000000e+00 1.224647e-16
    outer loop
      vertex -1.196386e+02 -1.709781e+02 -1.465494e-14
      vertex -1.196386e+02 -2.920110e+02 2.997925e-01
      vertex -1.196386e+02 -2.920110e+02 -1.465494e-14
    endloop
  endfacet
  facet normal -0.000000e+00 -1.000000e+00 -0.000000e+00
    outer loop
      vertex -1.196386e+02 -2.920110e+02 -1.465494e-14
      vertex -1.196386e+02 -2.920110e+02 2.997925e-01
      vertex -1.201953e+02 -2.920110e+02 2.997925e-01
    endloop
  endfacet
  facet normal -0.000000e+00 -1.000000e+00 -0.000000e+00
    outer loop
      vertex -1.196386e+02 -2.920110e+02 -1.465494e-14
      vertex -1.201953e+02 -2.920110e+02 2.997925e-01
      vertex -1.201953e+02 -2.920110e+02 -1.471046e-14
    endloop
  endfacet
  facet normal -1.224647e-16 -0.000000e+00 1.000000e+00
    outer loop
      vertex -1.201953e+02 -1.709781e+02 2.997925e-01
      vertex -1.201953e+02 -2.920110e+02 2.997925e-01
      vertex -1.196386e+02 -2.920110e+02 2.997925e-01
    endloop
  endfacet
  facet normal -1.224647e-16 -0.000000e+00 1.000000e+00
    outer loop
      vertex -1.201953e+02 -1.709781e+02 2.997925e-01
      vertex -1.196386e+02 -2.920110e+02 2.997925e-01
      vertex -1.196386e+02 -1.709781e+02 2.997925e-01
    endloop
  endfacet
  facet normal 1.224647e-16 0.000000e+00 -1.000000e+00
    outer loop
      vertex -1.201953e+02 -2.920110e+02 -1.471046e-14
      vertex -1.201953e+02 -1.709781e+02 -1.471046e-14
      vertex -1.196386e+02 -1.709781e+02 -1.465494e-14
    endloop
  endfacet
  facet normal 1.224647e-16 0.000000e+00 -1.000000e+00
    outer loop
      vertex -1.201953e+02 -2.920110e+02 -1.471046e-14
      vertex -1.196386e+02 -1.709781e+02 -1.465494e-14
      vertex -1.196386e+02 -2.920110e+02 -1.465494e-14
    endloop
  endfacet
endsolid antenna:feed_line_2_1
solid antenna:feed2_1
  facet normal -1.224647e-16 -0.000000e+00 1.000000e+00
    outer loop
      vertex -4.102633e-01 -2.927196e+02 2.997925e-01
      vertex -1.835699e-17 -2.921629e+02 2.997925e-01
      vertex -1.196386e+02 -2.921629e+02 2.997925e-01
    endloop
  endfacet
  facet normal -1.224647e-16 -0.000000e+00 1.000000e+00
    outer loop
      vertex -1.835699e-17 -2.923998e+02 2.997925e-01
      vertex -1.835699e-17 -2.921629e+02 2.997925e-01
      vertex -4.102633e-01 -2.927196e+02 2.997925e-01
    endloop
  endfacet
  facet normal -1.224647e-16 -0.000000e+00 1.000000e+00
    outer loop
      vertex -1.196386e+02 -2.921629e+02 2.997925e-01
      vertex -1.194868e+02 -2.927196e+02 2.997925e-01
      vertex -4.102633e-01 -2.927196e+02 2.997925e-01
    endloop
  endfacet
  facet normal -1.224647e-16 -0.000000e+00 1.000000e+00
    outer loop
      vertex -1.196386e+02 -2.921629e+02 2.997925e-01
      vertex -1.201953e+02 -2.920110e+02 2.997925e-01
      vertex -1.194868e+02 -2.927196e+02 2.997925e-01
    endloop
  endfacet
  facet normal -1.224647e-16 -0.000000e+00 1.000000e+00
    outer loop
      vertex -1.196386e+02 -2.920110e+02 2.997925e-01
      vertex -1.201953e+02 -2.920110e+02 2.997925e-01
      vertex -1.196386e+02 -2.921629e+02 2.997925e-01
    endloop
  endfacet
  facet normal 1.224647e-16 0.000000e+00 -1.000000e+00
    outer loop
      vertex -4.102633e-01 -2.927196e+02 -1.110223e-16
      vertex 1.835699e-17 -2.921629e+02 -5.551115e-17
      vertex 1.835699e-17 -2.923998e+02 -5.551115e-17
    endloop
  endfacet
  facet normal 1.224647e-16 0.000000e+00 -1.000000e+00
    outer loop
      vertex -4.102633e-01 -2.927196e+02 -1.110223e-16
      vertex -1.196386e+02 -2.921629e+02 -1.471046e-14
      vertex 1.835699e-17 -2.921629e+02 -5.551115e-17
    endloop
  endfacet
  facet normal 1.224647e-16 0.000000e+00 -1.000000e+00
    outer loop
      vertex -1.194868e+02 -2.927196e+02 -1.471046e-14
      vertex -1.196386e+02 -2.921629e+02 -1.471046e-14
      vertex -4.102633e-01 -2.927196e+02 -1.110223e-16
    endloop
  endfacet
  facet normal 1.224647e-16 0.000000e+00 -1.000000e+00
    outer loop
      vertex -1.201953e+02 -2.920110e+02 -1.476597e-14
      vertex -1.196386e+02 -2.921629e+02 -1.471046e-14
      vertex -1.194868e+02 -2.927196e+02 -1.471046e-14
    endloop
  endfacet
  facet normal 1.224647e-16 0.000000e+00 -1.000000e+00
    outer loop
      vertex -1.196386e+02 -2.920110e+02 -1.471046e-14
      vertex -1.196386e+02 -2.921629e+02 -1.471046e-14
      vertex -1.201953e+02 -2.920110e+02 -1.476597e-14
    endloop
  endfacet
  facet normal 1.000000e+00 0.000000e+00 1.224647e-16
    outer loop
      vertex -1.196386e+02 -2.921629e+02 -1.471046e-14
      vertex -1.196386e+02 -2.920110e+02 -1.471046e-14
      vertex -1.196386e+02 -2.920110e+02 2.997925e-01
    endloop
  endfacet
  facet normal 1.000000e+00 0.000000e+00 1.224647e-16
    outer loop
      vertex -1.196386e+02 -2.921629e+02 -1.471046e-14
      vertex -1.196386e+02 -2.920110e+02 2.997925e-01
      vertex -1.196386e+02 -2.921629e+02 2.997925e-01
    endloop
  endfacet
  facet normal 0.000000e+00 1.000000e+00 0.000000e+00
    outer loop
      vertex 1.835699e-17 -2.921629e+02 -5.551115e-17
      vertex -1.196386e+02 -2.921629e+02 -1.471046e-14
      vertex -1.196386e+02 -2.921629e+02 2.997925e-01
    endloop
  endfacet
  facet normal 0.000000e+00 1.000000e+00 0.000000e+00
    outer loop
      vertex 1.835699e-17 -2.921629e+02 -5.551115e-17
      vertex -1.196386e+02 -2.921629e+02 2.997925e-01
      vertex -1.835699e-17 -2.921629e+02 2.997925e-01
    endloop
  endfacet
  facet normal 1.000000e+00 0.000000e+00 1.224647e-16
    outer loop
      vertex 1.835699e-17 -2.923998e+02 -5.551115e-17
      vertex 1.835699e-17 -2.921629e+02 -5.551115e-17
      vertex -1.835699e-17 -2.921629e+02 2.997925e-01
    endloop
  endfacet
  facet normal 1.000000e+00 0.000000e+00 1.224647e-16
    outer loop
      vertex 1.835699e-17 -2.923998e+02 -5.551115e-17
      vertex -1.835699e-17 -2.921629e+02 2.997925e-01
      vertex -1.835699e-17 -2.923998e+02 2.997925e-01
    endloop
  endfacet
  facet normal 6.147987e-01 -7.886841e-01 7.529112e-17
    outer loop
      vertex -4.102633e-01 -2.927196e+02 -1.110223e-16
      vertex 1.835699e-17 -2.923998e+02 -5.551115e-17
      vertex -1.835699e-17 -2.923998e+02 2.997925e-01
    endloop
  endfacet
  facet normal 6.147987e-01 -7.886841e-01 7.529112e-17
    outer loop
      vertex -4.102633e-01 -2.927196e+02 -1.110223e-16
      vertex -1.835699e-17 -2.923998e+02 2.997925e-01
      vertex -4.102633e-01 -2.927196e+02 2.997925e-01
    endloop
  endfacet
  facet normal 0.000000e+00 -1.000000e+00 -0.000000e+00
    outer loop
      vertex -1.194868e+02 -2.927196e+02 -1.471046e-14
      vertex -4.102633e-01 -2.927196e+02 -1.110223e-16
      vertex -4.102633e-01 -2.927196e+02 2.997925e-01
    endloop
  endfacet
  facet normal 0.000000e+00 -1.000000e+00 -0.000000e+00
    outer loop
      vertex -1.194868e+02 -2.927196e+02 -1.471046e-14
      vertex -4.102633e-01 -2.927196e+02 2.997925e-01
      vertex -1.194868e+02 -2.927196e+02 2.997925e-01
    endloop
  endfacet
  facet normal -7.071068e-01 -7.071068e-01 -8.659561e-17
    outer loop
      vertex -1.201953e+02 -2.920110e+02 -1.476597e-14
      vertex -1.194868e+02 -2.927196e+02 -1.471046e-14
      vertex -1.194868e+02 -2.927196e+02 2.997925e-01
    endloop
  endfacet
  facet normal -7.071068e-01 -7.071068e-01 -8.659561e-17
    outer loop
      vertex -1.201953e+02 -2.920110e+02 -1.476597e-14
      vertex -1.194868e+02 -2.927196e+02 2.997925e-01
      vertex -1.201953e+02 -2.920110e+02 2.997925e-01
    endloop
  endfacet
  facet normal 0.000000e+00 1.000000e+00 0.000000e+00
    outer loop
      vertex -1.196386e+02 -2.920110e+02 -1.471046e-14
      vertex -1.201953e+02 -2.920110e+02 -1.476597e-14
      vertex -1.201953e+02 -2.920110e+02 2.997925e-01
    endloop
  endfacet
  facet normal 0.000000e+00 1.000000e+00 0.000000e+00
    outer loop
      vertex -1.196386e+02 -2.920110e+02 -1.471046e-14
      vertex -1.201953e+02 -2.920110e+02 2.997925e-01
      vertex -1.196386e+02 -2.920110e+02 2.997925e-01
    endloop
  endfacet
endsolid antenna:feed2_1
solid antenna:patch2_1
  facet normal -1.224647e-16 -0.000000e+00 1.000000e+00
    outer loop
      vertex -5.872210e+01 -6.885581e+01 2.997925e-01
      vertex -1.811119e+02 -6.885581e+01 2.997925e-01
      vertex -1.811119e+02 -1.709781e+02 2.997925e-01
    endloop
  endfacet
  facet normal -1.224647e-16 -0.000000e+00 1.000000e+00
    outer loop
      vertex -5.872210e+01 -6.885581e+01 2.997925e-01
      vertex -1.811119e+02 -1.709781e+02 2.997925e-01
      vertex -5.872210e+01 -1.709781e+02 2.997925e-01
    endloop
  endfacet
  facet normal 1.224647e-16 0.000000e+00 -1.000000e+00
    outer loop
      vertex -1.811119e+02 -1.709781e+02 -2.220446e-14
      vertex -1.811119e+02 -6.885581e+01 -2.220446e-14
      vertex -5.872210e+01 -6.885581e+01 -7.216450e-15
    endloop
  endfacet
  facet normal 1.224647e-16 0.000000e+00 -1.000000e+00
    outer loop
      vertex -1.811119e+02 -1.709781e+02 -2.220446e-14
      vertex -5.872210e+01 -6.885581e+01 -7.216450e-15
      vertex -5.872210e+01 -1.709781e+02 -7.216450e-15
    endloop
  endfacet
  facet normal 0.000000e+00 1.000000e+00 0.000000e+00
    outer loop
      vertex -5.872210e+01 -6.885581e+01 -7.216450e-15
      vertex -1.811119e+02 -6.885581e+01 -2.220446e-14
      vertex -1.811119e+02 -6.885581e+01 2.997925e-01
    endloop
  endfacet
  facet normal 0.000000e+00 1.000000e+00 0.000000e+00
    outer loop
      vertex -5.872210e+01 -6.885581e+01 -7.216450e-15
      vertex -1.811119e+02 -6.885581e+01 2.997925e-01
      vertex -5.872210e+01 -6.885581e+01 2.997925e-01
    endloop
  endfacet
  facet normal 1.000000e+00 0.000000e+00 1.224647e-16
    outer loop
      vertex -5.872210e+01 -1.709781e+02 -7.216450e-15
      vertex -5.872210e+01 -6.885581e+01 -7.216450e-15
      vertex -5.872210e+01 -6.885581e+01 2.997925e-01
    endloop
  endfacet
  facet normal 1.000000e+00 0.000000e+00 1.224647e-16
    outer loop
      vertex -5.872210e+01 -1.709781e+02 -7.216450e-15
      vertex -5.872210e+01 -6.885581e+01 2.997925e-01
      vertex -5.872210e+01 -1.709781e+02 2.997925e-01
    endloop
  endfacet
  facet normal 0.000000e+00 -1.000000e+00 -0.000000e+00
    outer loop
      vertex -1.811119e+02 -1.709781e+02 -2.220446e-14
      vertex -5.872210e+01 -1.709781e+02 -7.216450e-15
      vertex -5.872210e+01 -1.709781e+02 2.997925e-01
    endloop
  endfacet
  facet normal 0.000000e+00 -1.000000e+00 -0.000000e+00
    outer loop
      vertex -1.811119e+02 -1.709781e+02 -2.220446e-14
      vertex -5.872210e+01 -1.709781e+02 2.997925e-01
      vertex -1.811119e+02 -1.709781e+02 2.997925e-01
    endloop
  endfacet
  facet normal -1.000000e+00 0.000000e+00 -1.224647e-16
    outer loop
      vertex -1.811119e+02 -6.885581e+01 -2.220446e-14
      vertex -1.811119e+02 -1.709781e+02 -2.220446e-14
      vertex -1.811119e+02 -1.709781e+02 2.997925e-01
    endloop
  endfacet
  facet normal -1.000000e+00 0.000000e+00 -1.224647e-16
    outer loop
      vertex -1.811119e+02 -6.885581e+01 -2.220446e-14
      vertex -1.811119e+02 -1.709781e+02 2.997925e-01
      vertex -1.811119e+02 -6.885581e+01 2.997925e-01
    endloop
  endfacet
endsolid antenna:patch2_1
solid antenna:quarterwave1
  facet normal 1.000000e+00 -0.000000e+00 -0.000000e+00
    outer loop
      vertex 2.832562e+00 -1.115637e+02 2.997925e-01
      vertex 2.832562e+00 -1.115637e+02 0.000000e+00
      vertex 2.832562e+00 -5.288563e+01 0.000000e+00
    endloop
  endfacet
  facet normal 1.000000e+00 -0.000000e+00 -0.000000e+00
    outer loop
      vertex 2.832562e+00 -1.115637e+02 2.997925e-01
      vertex 2.832562e+00 -5.288563e+01 0.000000e+00
      vertex 2.832562e+00 -5.288563e+01 2.997925e-01
    endloop
  endfacet
  facet normal -0.000000e+00 1.000000e+00 -0.000000e+00
    outer loop
      vertex 2.832562e+00 -5.288563e+01 2.997925e-01
      vertex 2.832562e+00 -5.288563e+01 0.000000e+00
      vertex -2.832562e+00 -5.288563e+01 -3.330669e-16
    endloop
  endfacet
  facet normal -0.000000e+00 1.000000e+00 -0.000000e+00
    outer loop
      vertex 2.832562e+00 -5.288563e+01 2.997925e-01
      vertex -2.832562e+00 -5.288563e+01 -3.330669e-16
      vertex -2.832562e+00 -5.288563e+01 2.997925e-01
    endloop
  endfacet
  facet normal -0.000000e+00 -1.000000e+00 -0.000000e+00
    outer loop
      vertex -2.832562e+00 -1.115637e+02 -3.330669e-16
      vertex 2.832562e+00 -1.115637e+02 0.000000e+00
      vertex 2.832562e+00 -1.115637e+02 2.997925e-01
    endloop
  endfacet
  facet normal -0.000000e+00 -1.000000e+00 -0.000000e+00
    outer loop
      vertex -2.832562e+00 -1.115637e+02 -3.330669e-16
      vertex 2.832562e+00 -1.115637e+02 2.997925e-01
      vertex -2.832562e+00 -1.115637e+02 2.997925e-01
    endloop
  endfacet
  facet normal -0.000000e+00 -0.000000e+00 -1.000000e+00
    outer loop
      vertex 2.832562e+00 -5.288563e+01 0.000000e+00
      vertex 2.832562e+00 -1.115637e+02 0.000000e+00
      vertex -2.832562e+00 -1.115637e+02 -3.330669e-16
    endloop
  endfacet
  facet normal -0.000000e+00 -0.000000e+00 -1.000000e+00
    outer loop
      vertex 2.832562e+00 -5.288563e+01 0.000000e+00
      vertex -2.832562e+00 -1.115637e+02 -3.330669e-16
      vertex -2.832562e+00 -5.288563e+01 -3.330669e-16
    endloop
  endfacet
  facet normal 0.000000e+00 0.000000e+00 1.000000e+00
    outer loop
      vertex 2.832562e+00 -1.115637e+02 2.997925e-01
      vertex 2.832562e+00 -5.288563e+01 2.997925e-01
      vertex -2.832562e+00 -5.288563e+01 2.997925e-01
    endloop
  endfacet
  facet normal 0.000000e+00 0.000000e+00 1.000000e+00
    outer loop
      vertex 2.832562e+00 -1.115637e+02 2.997925e-01
      vertex -2.832562e+00 -5.288563e+01 2.997925e-01
      vertex -2.832562e+00 -1.115637e+02 2.997925e-01
    endloop
  endfacet
  facet normal -1.000000e+00 -0.000000e+00 -1.224647e-16
    outer loop
      vertex -2.832562e+00 -1.115637e+02 -3.330669e-16
      vertex -2.832562e+00 -1.115637e+02 2.997925e-01
      vertex -2.832562e+00 -5.288563e+01 2.997925e-01
    endloop
  endfacet
  facet normal -1.000000e+00 -0.000000e+00 -1.224647e-16
    outer loop
      vertex -2.832562e+00 -1.115637e+02 -3.330669e-16
      vertex -2.832562e+00 -5.288563e+01 2.997925e-01
      vertex -2.832562e+00 -5.288563e+01 -3.330669e-16
    endloop
  endfacet
endsolid antenna:quarterwave1
solid antenna:quarterwave1_1
  facet normal 1.000000e+00 -0.000000e+00 -0.000000e+00
    outer loop
      vertex 2.832562e+00 -2.921629e+02 2.997925e-01
      vertex 2.832562e+00 -2.921629e+02 0.000000e+00
      vertex 2.832562e+00 -2.334848e+02 0.000000e+00
    endloop
  endfacet
  facet normal 1.000000e+00 -0.000000e+00 -0.000000e+00
    outer loop
      vertex 2.832562e+00 -2.921629e+02 2.997925e-01
      vertex 2.832562e+00 -2.334848e+02 0.000000e+00
      vertex 2.832562e+00 -2.334848e+02 2.997925e-01
    endloop
  endfacet
  facet normal -0.000000e+00 1.000000e+00 -0.000000e+00
    outer loop
      vertex 2.832562e+00 -2.334848e+02 2.997925e-01
      vertex 2.832562e+00 -2.334848e+02 0.000000e+00
      vertex -2.832562e+00 -2.334848e+02 -3.330669e-16
    endloop
  endfacet
  facet normal -0.000000e+00 1.000000e+00 -0.000000e+00
    outer loop
      vertex 2.832562e+00 -2.334848e+02 2.997925e-01
      vertex -2.832562e+00 -2.334848e+02 -3.330669e-16
      vertex -2.832562e+00 -2.334848e+02 2.997925e-01
    endloop
  endfacet
  facet normal -0.000000e+00 -1.000000e+00 -0.000000e+00
    outer loop
      vertex -2.832562e+00 -2.921629e+02 -3.330669e-16
      vertex 2.832562e+00 -2.921629e+02 0.000000e+00
      vertex 2.832562e+00 -2.921629e+02 2.997925e-01
    endloop
  endfacet
  facet normal -0.000000e+00 -1.000000e+00 -0.000000e+00
    outer loop
      vertex -2.832562e+00 -2.921629e+02 -3.330669e-16
      vertex 2.832562e+00 -2.921629e+02 2.997925e-01
      vertex -2.832562e+00 -2.921629e+02 2.997925e-01
    endloop
  endfacet
  facet normal -0.000000e+00 -0.000000e+00 -1.000000e+00
    outer loop
      vertex 2.832562e+00 -2.334848e+02 0.000000e+00
      vertex 2.832562e+00 -2.921629e+02 0.000000e+00
      vertex -2.832562e+00 -2.921629e+02 -3.330669e-16
    endloop
  endfacet
  facet normal -0.000000e+00 -0.000000e+00 -1.000000e+00
    outer loop
      vertex 2.832562e+00 -2.334848e+02 0.000000e+00
      vertex -2.832562e+00 -2.921629e+02 -3.330669e-16
      vertex -2.832562e+00 -2.334848e+02 -3.330669e-16
    endloop
  endfacet
  facet normal 0.000000e+00 0.000000e+00 1.000000e+00
    outer loop
      vertex 2.832562e+00 -2.921629e+02 2.997925e-01
      vertex 2.832562e+00 -2.334848e+02 2.997925e-01
      vertex -2.832562e+00 -2.334848e+02 2.997925e-01
    endloop
  endfacet
  facet normal 0.000000e+00 0.000000e+00 1.000000e+00
    outer loop
      vertex 2.832562e+00 -2.921629e+02 2.997925e-01
      vertex -2.832562e+00 -2.334848e+02 2.997925e-01
      vertex -2.832562e+00 -2.921629e+02 2.997925e-01
    endloop
  endfacet
  facet normal -1.000000e+00 -0.000000e+00 -1.224647e-16
    outer loop
      vertex -2.832562e+00 -2.921629e+02 -3.330669e-16
      vertex -2.832562e+00 -2.921629e+02 2.997925e-01
      vertex -2.832562e+00 -2.334848e+02 2.997925e-01
    endloop
  endfacet
  facet normal -1.000000e+00 -0.000000e+00 -1.224647e-16
    outer loop
      vertex -2.832562e+00 -2.921629e+02 -3.330669e-16
      vertex -2.832562e+00 -2.334848e+02 2.997925e-01
      vertex -2.832562e+00 -2.334848e+02 -3.330669e-16
    endloop
  endfacet
endsolid antenna:quarterwave1_1
solid antenna:connection1
  facet normal 1.000000e+00 -0.000000e+00 -0.000000e+00
    outer loop
      vertex 3.090621e+00 -1.725243e+02 2.997925e-01
      vertex 3.090621e+00 -1.725243e+02 0.000000e+00
      vertex 3.090621e+00 -1.115637e+02 0.000000e+00
    endloop
  endfacet
  facet normal 1.000000e+00 -0.000000e+00 -0.000000e+00
    outer loop
      vertex 3.090621e+00 -1.725243e+02 2.997925e-01
      vertex 3.090621e+00 -1.115637e+02 0.000000e+00
      vertex 3.090621e+00 -1.115637e+02 2.997925e-01
    endloop
  endfacet
  facet normal -0.000000e+00 1.000000e+00 -0.000000e+00
    outer loop
      vertex 3.090621e+00 -1.115637e+02 2.997925e-01
      vertex 3.090621e+00 -1.115637e+02 0.000000e+00
      vertex -3.090621e+00 -1.115637e+02 -3.885781e-16
    endloop
  endfacet
  facet normal -0.000000e+00 1.000000e+00 -0.000000e+00
    outer loop
      vertex 3.090621e+00 -1.115637e+02 2.997925e-01
      vertex -3.090621e+00 -1.115637e+02 -3.885781e-16
      vertex -3.090621e+00 -1.115637e+02 2.997925e-01
    endloop
  endfacet
  facet normal -0.000000e+00 -1.000000e+00 -0.000000e+00
    outer loop
      vertex -3.090621e+00 -1.725243e+02 -3.885781e-16
      vertex 3.090621e+00 -1.725243e+02 0.000000e+00
      vertex 3.090621e+00 -1.725243e+02 2.997925e-01
    endloop
  endfacet
  facet normal -0.000000e+00 -1.000000e+00 -0.000000e+00
    outer loop
      vertex -3.090621e+00 -1.725243e+02 -3.885781e-16
      vertex 3.090621e+00 -1.725243e+02 2.997925e-01
      vertex -3.090621e+00 -1.725243e+02 2.997925e-01
    endloop
  endfacet
  facet normal -0.000000e+00 -0.000000e+00 -1.000000e+00
    outer loop
      vertex 3.090621e+00 -1.115637e+02 0.000000e+00
      vertex 3.090621e+00 -1.725243e+02 0.000000e+00
      vertex -3.090621e+00 -1.725243e+02 -3.885781e-16
    endloop
  endfacet
  facet normal -0.000000e+00 -0.000000e+00 -1.000000e+00
    outer loop
      vertex 3.090621e+00 -1.115637e+02 0.000000e+00
      vertex -3.090621e+00 -1.725243e+02 -3.885781e-16
      vertex -3.090621e+00 -1.115637e+02 -3.885781e-16
    endloop
  endfacet
  facet normal 0.000000e+00 0.000000e+00 1.000000e+00
    outer loop
      vertex 3.090621e+00 -1.725243e+02 2.997925e-01
      vertex 3.090621e+00 -1.115637e+02 2.997925e-01
      vertex -3.090621e+00 -1.115637e+02 2.997925e-01
    endloop
  endfacet
  facet normal 0.000000e+00 0.000000e+00 1.000000e+00
    outer loop
      vertex 3.090621e+00 -1.725243e+02 2.997925e-01
      vertex -3.090621e+00 -1.115637e+02 2.997925e-01
      vertex -3.090621e+00 -1.725243e+02 2.997925e-01
    endloop
  endfacet
  facet normal -1.000000e+00 -0.000000e+00 -1.224647e-16
    outer loop
      vertex -3.090621e+00 -1.725243e+02 -3.885781e-16
      vertex -3.090621e+00 -1.725243e+02 2.997925e-01
      vertex -3.090621e+00 -1.115637e+02 2.997925e-01
    endloop
  endfacet
  facet normal -1.000000e+00 -0.000000e+00 -1.224647e-16
    outer loop
      vertex -3.090621e+00 -1.725243e+02 -3.885781e-16
      vertex -3.090621e+00 -1.115637e+02 2.997925e-01
      vertex -3.090621e+00 -1.115637e+02 -3.885781e-16
    endloop
  endfacet
endsolid antenna:connection1
solid antenna:connection1_1
  facet normal 1.000000e+00 -0.000000e+00 -0.000000e+00
    outer loop
      vertex 3.090621e+00 -2.334848e+02 2.997925e-01
      vertex 3.090621e+00 -2.334848e+02 0.000000e+00
      vertex 3.090621e+00 -1.725243e+02 0.000000e+00
    endloop
  endfacet
  facet normal 1.000000e+00 -0.000000e+00 -0.000000e+00
    outer loop
      vertex 3.090621e+00 -2.334848e+02 2.997925e-01
      vertex 3.090621e+00 -1.725243e+02 0.000000e+00
      vertex 3.090621e+00 -1.725243e+02 2.997925e-01
    endloop
  endfacet
  facet normal -0.000000e+00 1.000000e+00 -0.000000e+00
    outer loop
      vertex 3.090621e+00 -1.725243e+02 2.997925e-01
      vertex 3.090621e+00 -1.725243e+02 0.000000e+00
      vertex -3.090621e+00 -1.725243e+02 -3.885781e-16
    endloop
  endfacet
  facet normal -0.000000e+00 1.000000e+00 -0.000000e+00
    outer loop
      vertex 3.090621e+00 -1.725243e+02 2.997925e-01
      vertex -3.090621e+00 -1.725243e+02 -3.885781e-16
      vertex -3.090621e+00 -1.725243e+02 2.997925e-01
    endloop
  endfacet
  facet normal -0.000000e+00 -1.000000e+00 -0.000000e+00
    outer loop
      vertex -3.090621e+00 -2.334848e+02 -3.885781e-16
      vertex 3.090621e+00 -2.334848e+02 0.000000e+00
      vertex 3.090621e+00 -2.334848e+02 2.997925e-01
    endloop
  endfacet
  facet normal -0.000000e+00 -1.000000e+00 -0.000000e+00
    outer loop
      vertex -3.090621e+00 -2.334848e+02 -3.885781e-16
      vertex 3.090621e+00 -2.334848e+02 2.997925e-01
      vertex -3.090621e+00 -2.334848e+02 2.997925e-01
    endloop
  endfacet
  facet normal -0.000000e+00 -0.000000e+00 -1.000000e+00
    outer loop
      vertex 3.090621e+00 -1.725243e+02 0.000000e+00
      vertex 3.090621e+00 -2.334848e+02 0.000000e+00
      vertex -3.090621e+00 -2.334848e+02 -3.885781e-16
    endloop
  endfacet
  facet normal -0.000000e+00 -0.000000e+00 -1.000000e+00
    outer loop
      vertex 3.090621e+00 -1.725243e+02 0.000000e+00
      vertex -3.090621e+00 -2.334848e+02 -3.885781e-16
      vertex -3.090621e+00 -1.725243e+02 -3.885781e-16
    endloop
  endfacet
  facet normal 0.000000e+00 0.000000e+00 1.000000e+00
    outer loop
      vertex 3.090621e+00 -2.334848e+02 2.997925e-01
      vertex 3.090621e+00 -1.725243e+02 2.997925e-01
      vertex -3.090621e+00 -1.725243e+02 2.997925e-01
    endloop
  endfacet
  facet normal 0.000000e+00 0.000000e+00 1.000000e+00
    outer loop
      vertex 3.090621e+00 -2.334848e+02 2.997925e-01
      vertex -3.090621e+00 -1.725243e+02 2.997925e-01
      vertex -3.090621e+00 -2.334848e+02 2.997925e-01
    endloop
  endfacet
  facet normal -1.000000e+00 -0.000000e+00 -1.224647e-16
    outer loop
      vertex -3.090621e+00 -2.334848e+02 -3.885781e-16
      vertex -3.090621e+00 -2.334848e+02 2.997925e-01
      vertex -3.090621e+00 -1.725243e+02 2.997925e-01
    endloop
  endfacet
  facet normal -1.000000e+00 -0.000000e+00 -1.224647e-16
    outer loop
      vertex -3.090621e+00 -2.334848e+02 -3.885781e-16
      vertex -3.090621e+00 -1.725243e+02 2.997925e-01
      vertex -3.090621e+00 -1.725243e+02 -3.885781e-16
    endloop
  endfacet
endsolid antenna:connection1_1
solid antenna:substrate
  facet normal 1.000000e+00 -0.000000e+00 -0.000000e+00
    outer loop
      vertex 2.398340e+02 -3.612971e+02 0.000000e+00
      vertex 2.398340e+02 -3.612971e+02 -6.360000e+00
      vertex 2.398340e+02 2.398340e+02 -6.360000e+00
    endloop
  endfacet
  facet normal 1.000000e+00 -0.000000e+00 -0.000000e+00
    outer loop
      vertex 2.398340e+02 -3.612971e+02 0.000000e+00
      vertex 2.398340e+02 2.398340e+02 -6.360000e+00
      vertex 2.398340e+02 2.398340e+02 0.000000e+00
    endloop
  endfacet
  facet normal -0.000000e+00 1.000000e+00 -0.000000e+00
    outer loop
      vertex 2.398340e+02 2.398340e+02 0.000000e+00
      vertex 2.398340e+02 2.398340e+02 -6.360000e+00
      vertex -2.398340e+02 2.398340e+02 -6.360000e+00
    endloop
  endfacet
  facet normal -0.000000e+00 1.000000e+00 -0.000000e+00
    outer loop
      vertex 2.398340e+02 2.398340e+02 0.000000e+00
      vertex -2.398340e+02 2.398340e+02 -6.360000e+00
      vertex -2.398340e+02 2.398340e+02 0.000000e+00
    endloop
  endfacet
  facet normal -1.000000e+00 -0.000000e+00 -0.000000e+00
    outer loop
      vertex -2.398340e+02 2.398340e+02 0.000000e+00
      vertex -2.398340e+02 2.398340e+02 -6.360000e+00
      vertex -2.398340e+02 -3.612971e+02 -6.360000e+00
    endloop
  endfacet
  facet normal -1.000000e+00 -0.000000e+00 -0.000000e+00
    outer loop
      vertex -2.398340e+02 2.398340e+02 0.000000e+00
      vertex -2.398340e+02 -3.612971e+02 -6.360000e+00
      vertex -2.398340e+02 -3.612971e+02 0.000000e+00
    endloop
  endfacet
  facet normal -0.000000e+00 -1.000000e+00 -0.000000e+00
    outer loop
      vertex -2.398340e+02 -3.612971e+02 0.000000e+00
      vertex -2.398340e+02 -3.612971e+02 -6.360000e+00
      vertex 2.398340e+02 -3.612971e+02 -6.360000e+00
    endloop
  endfacet
  facet normal -0.000000e+00 -1.000000e+00 -0.000000e+00
    outer loop
      vertex -2.398340e+02 -3.612971e+02 0.000000e+00
      vertex 2.398340e+02 -3.612971e+02 -6.360000e+00
      vertex 2.398340e+02 -3.612971e+02 0.000000e+00
    endloop
  endfacet
  facet normal -0.000000e+00 -0.000000e+00 -1.000000e+00
    outer loop
      vertex 2.398340e+02 2.398340e+02 -6.360000e+00
      vertex 2.398340e+02 -3.612971e+02 -6.360000e+00
      vertex -2.398340e+02 -3.612971e+02 -6.360000e+00
    endloop
  endfacet
  facet normal -0.000000e+00 -0.000000e+00 -1.000000e+00
    outer loop
      vertex 2.398340e+02 2.398340e+02 -6.360000e+00
      vertex -2.398340e+02 -3.612971e+02 -6.360000e+00
      vertex -2.398340e+02 2.398340e+02 -6.360000e+00
    endloop
  endfacet
  facet normal 0.000000e+00 0.000000e+00 1.000000e+00
    outer loop
      vertex 2.398340e+02 -3.612971e+02 0.000000e+00
      vertex 2.398340e+02 2.398340e+02 0.000000e+00
      vertex -2.398340e+02 2.398340e+02 0.000000e+00
    endloop
  endfacet
  facet normal 0.000000e+00 0.000000e+00 1.000000e+00
    outer loop
      vertex 2.398340e+02 -3.612971e+02 0.000000e+00
      vertex -2.398340e+02 2.398340e+02 0.000000e+00
      vertex -2.398340e+02 -3.612971e+02 0.000000e+00
    endloop
  endfacet
endsolid antenna:substrate
solid antenna:groundplane
  facet normal 1.000000e+00 -0.000000e+00 -0.000000e+00
    outer loop
      vertex 2.398340e+02 -3.612971e+02 -6.360000e+00
      vertex 2.398340e+02 -3.612971e+02 -6.659792e+00
      vertex 2.398340e+02 2.398340e+02 -6.659792e+00
    endloop
  endfacet
  facet normal 1.000000e+00 -0.000000e+00 -0.000000e+00
    outer loop
      vertex 2.398340e+02 -3.612971e+02 -6.360000e+00
      vertex 2.398340e+02 2.398340e+02 -6.659792e+00
      vertex 2.398340e+02 2.398340e+02 -6.360000e+00
    endloop
  endfacet
  facet normal -0.000000e+00 1.000000e+00 -0.000000e+00
    outer loop
      vertex 2.398340e+02 2.398340e+02 -6.360000e+00
      vertex 2.398340e+02 2.398340e+02 -6.659792e+00
      vertex -2.398340e+02 2.398340e+02 -6.659792e+00
    endloop
  endfacet
  facet normal -0.000000e+00 1.000000e+00 -0.000000e+00
    outer loop
      vertex 2.398340e+02 2.398340e+02 -6.360000e+00
      vertex -2.398340e+02 2.398340e+02 -6.659792e+00
      vertex -2.398340e+02 2.398340e+02 -6.360000e+00
    endloop
  endfacet
  facet normal -1.000000e+00 -0.000000e+00 -0.000000e+00
    outer loop
      vertex -2.398340e+02 2.398340e+02 -6.360000e+00
      vertex -2.398340e+02 2.398340e+02 -6.659792e+00
      vertex -2.398340e+02 -3.612971e+02 -6.659792e+00
    endloop
  endfacet
  facet normal -1.000000e+00 -0.000000e+00 -0.000000e+00
    outer loop
      vertex -2.398340e+02 2.398340e+02 -6.360000e+00
      vertex -2.398340e+02 -3.612971e+02 -6.659792e+00
      vertex -2.398340e+02 -3.612971e+02 -6.360000e+00
    endloop
  endfacet
  facet normal -0.000000e+00 -1.000000e+00 -0.000000e+00
    outer loop
      vertex -2.398340e+02 -3.612971e+02 -6.360000e+00
      vertex -2.398340e+02 -3.612971e+02 -6.659792e+00
      vertex 2.398340e+02 -3.612971e+02 -6.659792e+00
    endloop
  endfacet
  facet normal -0.000000e+00 -1.000000e+00 -0.000000e+00
    outer loop
      vertex -2.398340e+02 -3.612971e+02 -6.360000e+00
      vertex 2.398340e+02 -3.612971e+02 -6.659792e+00
      vertex 2.398340e+02 -3.612971e+02 -6.360000e+00
    endloop
  endfacet
  facet normal -0.000000e+00 -0.000000e+00 -1.000000e+00
    outer loop
      vertex 2.398340e+02 2.398340e+02 -6.659792e+00
      vertex 2.398340e+02 -3.612971e+02 -6.659792e+00
      vertex -2.398340e+02 -3.612971e+02 -6.659792e+00
    endloop
  endfacet
  facet normal -0.000000e+00 -0.000000e+00 -1.000000e+00
    outer loop
      vertex 2.398340e+02 2.398340e+02 -6.659792e+00
      vertex -2.398340e+02 -3.612971e+02 -6.659792e+00
      vertex -2.398340e+02 2.398340e+02 -6.659792e+00
    endloop
  endfacet
  facet normal 0.000000e+00 0.000000e+00 1.000000e+00
    outer loop
      vertex 2.398340e+02 -3.612971e+02 -6.360000e+00
      vertex 2.398340e+02 2.398340e+02 -6.360000e+00
      vertex -2.398340e+02 2.398340e+02 -6.360000e+00
    endloop
  endfacet
  facet normal 0.000000e+00 0.000000e+00 1.000000e+00
    outer loop
      vertex 2.398340e+02 -3.612971e+02 -6.360000e+00
      vertex -2.398340e+02 2.398340e+02 -6.360000e+00
      vertex -2.398340e+02 -3.612971e+02 -6.360000e+00
    endloop
  endfacet
endsolid antenna:groundplane
